<svg width="302" height="219" viewBox="0 0 302 219" fill="none" xmlns="http://www.w3.org/2000/svg">
<rect width="230.622" height="64.1614" rx="5" transform="matrix(0.961578 -0.00387143 -0.0341599 1.0225 42.7582 78.9465)" fill="#E4E4E4"/>
<rect x="1.51227" y="1.44695" width="242.975" height="61.8707" rx="3.5" transform="matrix(0.973583 -0.0518551 0.0345974 1.01649 29.9354 76.1594)" fill="#6D5D9B" stroke="#E4E4E4" stroke-width="3"/>
<path d="M90.9415 114.594L90.3471 97.131L95.4014 96.8618L98.8416 108.612L101.437 96.5404L106.502 96.2705L107.097 113.733L103.959 113.901L103.491 100.154L100.639 114.077L97.3877 114.251L93.6111 100.68L94.079 114.427L90.9415 114.594ZM109.473 104.967C109.413 103.188 109.617 101.682 110.085 100.447C110.435 99.5377 110.925 98.7121 111.555 97.9705C112.193 97.2284 112.898 96.6658 113.669 96.2826C114.696 95.7665 115.89 95.4722 117.251 95.3997C119.716 95.2684 121.713 95.9616 123.243 97.4792C124.78 98.9964 125.597 101.177 125.694 104.02C125.79 106.839 125.131 109.085 123.718 110.76C122.304 112.426 120.368 113.325 117.911 113.456C115.424 113.588 113.42 112.903 111.898 111.401C110.376 109.891 109.568 107.746 109.473 104.967ZM112.949 104.663C113.016 106.64 113.505 108.118 114.414 109.095C115.323 110.065 116.451 110.514 117.798 110.443C119.144 110.371 120.23 109.808 121.055 108.754C121.887 107.691 122.269 106.147 122.2 104.122C122.132 102.121 121.659 100.65 120.781 99.7106C119.911 98.7705 118.78 98.3375 117.388 98.4116C115.996 98.4857 114.891 99.0458 114.073 100.092C113.255 101.13 112.88 102.653 112.949 104.663ZM132.402 112.386L131.909 97.8769L126.946 98.1412L126.845 95.1871L140.137 94.4791L140.237 97.4333L135.286 97.697L135.78 112.206L132.402 112.386ZM142.819 111.831L142.225 94.3679L145.602 94.188L146.196 111.651L142.819 111.831ZM148.447 102.891C148.386 101.112 148.59 99.6058 149.059 98.3716C149.409 97.4619 149.899 96.6363 150.529 95.8946C151.167 95.1526 151.871 94.59 152.643 94.2068C153.67 93.6907 154.863 93.3964 156.225 93.3239C158.689 93.1926 160.686 93.8858 162.216 95.4034C163.754 96.9206 164.571 99.1007 164.668 101.944C164.764 104.763 164.105 107.01 162.691 108.684C161.277 110.35 159.342 111.249 156.885 111.38C154.398 111.512 152.394 110.828 150.872 109.326C149.35 107.815 148.541 105.671 148.447 102.891ZM151.923 102.587C151.99 104.564 152.478 106.042 153.388 107.02C154.297 107.989 155.425 108.439 156.771 108.367C158.118 108.295 159.203 107.732 160.028 106.678C160.861 105.615 161.243 104.071 161.174 102.046C161.106 100.045 160.633 98.5746 159.755 97.6348C158.885 96.6947 157.754 96.2616 156.362 96.3358C154.97 96.4099 153.865 96.97 153.047 98.016C152.229 99.054 151.854 100.578 151.923 102.587ZM167.645 110.509L167.051 93.0456L170.337 92.8706L177.579 104.168L177.182 92.506L180.32 92.3389L180.914 109.802L177.526 109.982L170.395 98.9536L170.783 110.341L167.645 110.509ZM190.383 91.8029L193.76 91.623L194.082 101.081C194.133 102.582 194.208 103.553 194.307 103.993C194.475 104.7 194.837 105.257 195.392 105.665C195.954 106.065 196.707 106.24 197.65 106.19C198.609 106.139 199.324 105.898 199.797 105.467C200.27 105.028 200.546 104.508 200.624 103.907C200.703 103.306 200.719 102.315 200.672 100.933L200.343 91.2724L203.72 91.0925L204.032 100.265C204.104 102.361 204.063 103.847 203.91 104.722C203.757 105.598 203.443 106.346 202.969 106.968C202.502 107.59 201.864 108.101 201.055 108.502C200.246 108.896 199.179 109.127 197.856 109.198C196.258 109.283 195.039 109.157 194.197 108.82C193.362 108.475 192.695 108.009 192.195 107.423C191.694 106.829 191.357 106.199 191.182 105.532C190.927 104.543 190.766 103.072 190.7 101.118L190.383 91.8029ZM207.783 108.371L207.188 90.9078L210.566 90.7279L211.16 108.191L207.783 108.371Z" fill="white"/>
</svg>
