<svg width="228" height="153" viewBox="0 0 228 153" fill="none" xmlns="http://www.w3.org/2000/svg">
<rect x="13.8769" y="48.2787" width="197.661" height="64" rx="9" transform="rotate(-2.43804 13.8769 48.2787)" fill="#302F2D" stroke="white" stroke-width="2"/>
<path d="M33.8629 71.501L37.3285 71.3534L37.7243 80.6497C37.7871 82.1249 37.8708 83.0792 37.9752 83.5127C38.1534 84.2088 38.5288 84.7598 39.1012 85.1655C39.6812 85.5631 40.4551 85.7412 41.423 85.7C42.4064 85.6581 43.1395 85.4275 43.6221 85.0082C44.1044 84.581 44.3838 84.0726 44.4603 83.4829C44.5368 82.8931 44.5462 81.9192 44.4884 80.5611L44.0841 71.0658L47.5497 70.9182L47.9336 79.9335C48.0213 81.9941 47.9896 83.4538 47.8385 84.3126C47.6874 85.1713 47.3706 85.9042 46.8882 86.5112C46.4136 87.1179 45.7622 87.6148 44.9342 88.002C44.1059 88.3813 43.0126 88.5999 41.6545 88.6577C40.0153 88.7275 38.7624 88.5932 37.8956 88.2547C37.0364 87.9082 36.3481 87.4448 35.8307 86.8647C35.3131 86.2769 34.9621 85.6545 34.7777 84.9977C34.5095 84.0238 34.3345 82.5769 34.2527 80.6567L33.8629 71.501ZM51.8398 87.9308L51.109 70.7667L54.5746 70.6191L55.3054 87.7832L51.8398 87.9308ZM56.8516 88.0106L60.3459 70.0801L62.8164 69.975L59.2752 87.9074L56.8516 88.0106ZM64.5382 70.1949L68.0038 70.0473L68.3996 79.3436C68.4625 80.8188 68.5461 81.7731 68.6506 82.2066C68.8288 82.9028 69.2041 83.4537 69.7766 83.8594C70.3565 84.257 71.1304 84.4352 72.0983 84.3939C73.0818 84.3521 73.8148 84.1215 74.2974 83.7021C74.7797 83.275 75.0591 82.7665 75.1356 82.1768C75.2122 81.5871 75.2215 80.6131 75.1637 79.255L74.7594 69.7597L78.225 69.6121L78.6089 78.6274C78.6966 80.688 78.6649 82.1477 78.5138 83.0065C78.3627 83.8653 78.046 84.5981 77.5635 85.2052C77.0889 85.8118 76.4376 86.3087 75.6096 86.6959C74.7812 87.0752 73.6879 87.2938 72.3298 87.3516C70.6906 87.4214 69.4377 87.2871 68.571 86.9486C67.7117 86.6021 67.0234 86.1387 66.5061 85.5587C65.9884 84.9708 65.6374 84.3484 65.453 83.6916C65.1848 82.7178 65.0098 81.2708 64.928 79.3506L64.5382 70.1949ZM80.876 86.6945L86.3604 77.488L80.6955 69.5069L84.7465 69.3345L88.4235 74.7024L91.5606 69.0443L95.5765 68.8733L90.5925 77.4369L96.8342 86.015L92.6544 86.193L88.5965 80.419L85.0324 86.5175L80.876 86.6945ZM104.545 68.4915L110.879 68.2218C112.307 68.161 113.401 68.2239 114.16 68.4105C115.179 68.6643 116.064 69.1544 116.814 69.881C117.565 70.6075 118.151 71.5131 118.572 72.5977C118.993 73.6745 119.238 75.0169 119.307 76.6248C119.367 78.0376 119.243 79.2627 118.935 80.3002C118.559 81.5673 117.989 82.6042 117.226 83.4109C116.65 84.0219 115.858 84.513 114.849 84.8844C114.095 85.1589 113.077 85.3235 111.797 85.378L105.276 85.6556L104.545 68.4915ZM108.134 71.2475L108.618 82.6162L111.206 82.506C112.174 82.4648 112.87 82.3804 113.295 82.2528C113.851 82.0884 114.305 81.8306 114.657 81.4793C115.018 81.1277 115.299 80.5645 115.5 79.7896C115.702 79.0069 115.774 77.9521 115.717 76.6251C115.661 75.2982 115.501 74.2846 115.236 73.5843C114.972 72.884 114.62 72.3437 114.182 71.9636C113.743 71.5835 113.197 71.3369 112.543 71.224C112.055 71.1354 111.104 71.1211 109.691 71.1812L108.134 71.2475ZM122.616 84.9173L121.885 67.7532L134.611 67.2113L134.735 70.1149L125.474 70.5093L125.636 74.3144L134.253 73.9475L134.376 76.8394L125.759 77.2063L125.958 81.8779L135.547 81.4696L135.67 84.3615L122.616 84.9173ZM137.493 78.689L140.851 78.2176C141.102 79.3407 141.547 80.1546 142.186 80.6591C142.833 81.1633 143.684 81.3929 144.738 81.3481C145.854 81.3005 146.683 81.0306 147.225 80.5384C147.774 80.038 148.036 79.4717 148.009 78.8394C147.992 78.4336 147.856 78.0953 147.602 77.8246C147.356 77.5457 146.931 77.3136 146.329 77.1281C145.917 77.0049 144.982 76.7945 143.522 76.4969C141.645 76.1155 140.317 75.6051 139.54 74.9657C138.446 74.0662 137.87 72.9373 137.812 71.5791C137.775 70.7049 137.986 69.8788 138.445 69.1007C138.912 68.3145 139.602 67.7026 140.514 67.265C141.433 66.827 142.553 66.58 143.872 66.5238C146.026 66.4321 147.666 66.8354 148.791 67.7336C149.924 68.6315 150.551 69.8677 150.673 71.4421L147.214 71.7418C147.028 70.8661 146.681 70.2475 146.173 69.886C145.673 69.5163 144.935 69.3523 143.959 69.3938C142.952 69.4367 142.172 69.6771 141.62 70.115C141.265 70.396 141.096 70.759 141.115 71.2039C141.133 71.6098 141.319 71.9498 141.675 72.224C142.128 72.5722 143.205 72.9095 144.908 73.2358C146.611 73.5621 147.874 73.9228 148.696 74.3178C149.526 74.7048 150.183 75.2594 150.667 75.9816C151.159 76.6957 151.428 77.5952 151.474 78.6802C151.516 79.6637 151.282 80.5963 150.772 81.4782C150.262 82.3601 149.517 83.033 148.536 83.497C147.554 83.9533 146.318 84.2131 144.827 84.2766C142.657 84.369 140.969 83.9404 139.764 82.9908C138.558 82.0334 137.801 80.5995 137.493 78.689ZM154.497 83.5599L153.766 66.3958L157.232 66.2482L157.962 83.4124L154.497 83.5599ZM168.992 76.6206L168.869 73.7287L176.339 73.4107L176.63 80.2482C175.934 80.9816 174.907 81.647 173.548 82.2444C172.197 82.8337 170.815 83.1584 169.402 83.2185C167.607 83.295 166.026 82.9869 164.659 82.2944C163.292 81.5941 162.243 80.5597 161.513 79.1911C160.782 77.8147 160.381 76.303 160.311 74.6561C160.235 72.8687 160.542 71.2643 161.232 69.843C161.922 68.4218 162.973 67.3096 164.386 66.5066C165.462 65.89 166.82 65.5467 168.459 65.477C170.59 65.3862 172.271 65.7642 173.504 66.611C174.744 67.4497 175.569 68.65 175.98 70.2121L172.565 71.0026C172.287 70.1699 171.802 69.5259 171.11 69.0705C170.426 68.6071 169.584 68.3966 168.585 68.4391C167.071 68.5036 165.885 69.035 165.029 70.0333C164.18 71.0312 163.795 72.4746 163.876 74.3636C163.963 76.4008 164.48 77.9114 165.429 78.8953C166.378 79.8715 167.586 80.3283 169.053 80.2658C169.779 80.2349 170.499 80.0635 171.213 79.7516C171.935 79.4316 172.548 79.0575 173.054 78.6293L172.961 76.4516L168.992 76.6206ZM179.974 82.4752L179.243 65.311L182.615 65.1675L190.128 76.3306L189.64 64.8684L192.859 64.7313L193.59 81.8954L190.113 82.0435L182.717 71.1451L183.193 82.3381L179.974 82.4752Z" fill="white"/>
</svg>
