<svg width="58" height="58" viewBox="0 0 58 58" fill="none" xmlns="http://www.w3.org/2000/svg">
<path d="M2 34C2 23.9434 2 18.915 5.12419 15.7908C8.2484 12.6666 13.2767 12.6666 23.3333 12.6666H34C44.0565 12.6666 49.0851 12.6666 52.2091 15.7908C55.3333 18.915 55.3333 23.9434 55.3333 34C55.3333 44.0565 55.3333 49.085 52.2091 52.209C49.0851 55.3333 44.0565 55.3333 34 55.3333H23.3333C13.2767 55.3333 8.2484 55.3333 5.12419 52.209C2 49.085 2 44.0565 2 34Z" stroke="white" stroke-width="4"/>
<path d="M39.3333 12.6667C39.3333 7.63835 39.3333 5.12419 37.7712 3.56211C36.2091 2 33.6949 2 28.6667 2C23.6384 2 21.1242 2 19.5621 3.56211C18 5.12419 18 7.63835 18 12.6667" stroke="white" stroke-width="4"/>
<path d="M42 20.6667C42 22.1394 40.8061 23.3333 39.3333 23.3333C37.8605 23.3333 36.6666 22.1394 36.6666 20.6667C36.6666 19.1939 37.8605 18 39.3333 18C40.8061 18 42 19.1939 42 20.6667Z" fill="white"/>
<path d="M20.6667 20.6667C20.6667 22.1394 19.4728 23.3333 18 23.3333C16.5273 23.3333 15.3334 22.1394 15.3334 20.6667C15.3334 19.1939 16.5273 18 18 18C19.4728 18 20.6667 19.1939 20.6667 20.6667Z" fill="white"/>
<path fill-rule="evenodd" clip-rule="evenodd" d="M25.6978 24.7431C27.8111 23.7523 30.1888 23.7523 32.3022 24.7431L41.0163 28.8284C42.3867 29.4709 43 30.8661 43 32.1396C43 33.413 42.3867 34.8081 41.0163 35.4507L39.093 36.3523V42.7214C39.093 44.3534 38.2748 45.9289 36.7853 46.7538C35.8063 47.296 34.5198 47.9486 33.1659 48.4681C31.828 48.9813 30.3465 49.3953 29 49.3953C27.6535 49.3953 26.172 48.9813 24.8341 48.4681C23.4802 47.9486 22.1937 47.296 21.2147 46.7538C19.7252 45.9289 18.907 44.3534 18.907 42.7214V36.3523L16.9837 35.4506L16.9535 35.4362V39.3023C16.9535 39.8417 16.5162 40.2791 15.9767 40.2791C15.4373 40.2791 15 39.8417 15 39.3023V32.1395C15 30.8661 15.6133 29.4709 16.9838 28.8284L25.6978 24.7431ZM20.8605 37.2681V42.7214C20.8605 43.7151 21.3537 44.5977 22.1611 45.0449C23.0944 45.5617 24.2944 46.1687 25.5338 46.6442C26.789 47.1258 28.0075 47.4419 29 47.4419C29.9925 47.4419 31.211 47.1258 32.4663 46.6442C33.7056 46.1687 34.9057 45.5617 35.8389 45.0449C36.6463 44.5977 37.1395 43.7151 37.1395 42.7214V37.2682L32.3023 39.536C30.1889 40.5268 27.8112 40.5268 25.6979 39.536L20.8605 37.2681ZM17.813 33.6819C17.2879 33.4357 16.9535 32.8485 16.9535 32.1395C16.9535 31.4305 17.2879 30.8433 17.813 30.5972L26.527 26.5118C28.1149 25.7674 29.8849 25.7674 31.4729 26.5118L40.187 30.5972C40.7121 30.8434 41.0465 31.4306 41.0465 32.1396C41.0465 32.8486 40.7121 33.4358 40.187 33.6819L31.473 37.7673C29.8851 38.5117 28.1151 38.5117 26.5271 37.7673L17.813 33.6819Z" fill="white"/>
</svg>
