<svg width="84" height="84" viewBox="0 0 84 84" fill="none" xmlns="http://www.w3.org/2000/svg">
<circle cx="42" cy="42" r="42" fill="#FFB359"/>
<path d="M34.131 35.16V23.7069H36.3263V27.8319C37.0034 27.061 37.8054 26.6756 38.7325 26.6756C39.7429 26.6756 40.5789 27.0428 41.2403 27.7772C41.9018 28.5063 42.2325 29.5558 42.2325 30.9256C42.2325 32.3423 41.894 33.4334 41.2169 34.1991C40.545 34.9647 39.7273 35.3475 38.7638 35.3475C38.2898 35.3475 37.8211 35.2303 37.3575 34.9959C36.8992 34.7563 36.5034 34.4048 36.17 33.9412V35.16H34.131ZM36.3106 30.8319C36.3106 31.6912 36.4461 32.3267 36.7169 32.7381C37.0971 33.3214 37.6023 33.6131 38.2325 33.6131C38.7169 33.6131 39.1284 33.4074 39.4669 32.9959C39.8106 32.5793 39.9825 31.9256 39.9825 31.035C39.9825 30.0871 39.8106 29.4048 39.4669 28.9881C39.1231 28.5662 38.683 28.3553 38.1466 28.3553C37.6205 28.3553 37.183 28.561 36.8341 28.9725C36.4851 29.3787 36.3106 29.9985 36.3106 30.8319ZM48.8106 32.5194L50.9981 32.8866C50.7169 33.6886 50.2716 34.3006 49.6622 34.7225C49.058 35.1392 48.3002 35.3475 47.3888 35.3475C45.9461 35.3475 44.8784 34.8761 44.1856 33.9334C43.6388 33.1782 43.3653 32.2251 43.3653 31.0741C43.3653 29.6991 43.7247 28.6235 44.4435 27.8475C45.1622 27.0662 46.0711 26.6756 47.17 26.6756C48.4044 26.6756 49.3784 27.0845 50.0919 27.9022C50.8054 28.7147 51.1466 29.9621 51.1153 31.6444H45.6153C45.631 32.2954 45.808 32.8032 46.1466 33.1678C46.4851 33.5272 46.907 33.7069 47.4122 33.7069C47.756 33.7069 48.045 33.6131 48.2794 33.4256C48.5138 33.2381 48.6909 32.936 48.8106 32.5194ZM48.9356 30.3006C48.92 29.6652 48.756 29.1834 48.4435 28.8553C48.131 28.522 47.7507 28.3553 47.3028 28.3553C46.8237 28.3553 46.4278 28.5298 46.1153 28.8787C45.8028 29.2277 45.6492 29.7017 45.6544 30.3006H48.9356Z" fill="black"/>
<path d="M22.1778 39.6668V43.8778C22.8862 43.0497 23.7325 42.6356 24.7169 42.6356C25.2221 42.6356 25.6778 42.7293 26.0841 42.9168C26.4903 43.1043 26.795 43.3439 26.9981 43.6356C27.2065 43.9273 27.3471 44.2502 27.42 44.6043C27.4981 44.9585 27.5372 45.508 27.5372 46.2528V51.12H25.3419V46.7372C25.3419 45.8674 25.3002 45.3153 25.2169 45.0809C25.1336 44.8465 24.9851 44.6616 24.7716 44.5262C24.5632 44.3856 24.3002 44.3153 23.9825 44.3153C23.6179 44.3153 23.2924 44.4038 23.006 44.5809C22.7195 44.758 22.5086 45.0262 22.3731 45.3856C22.2429 45.7398 22.1778 46.2658 22.1778 46.9637V51.12H19.9825V39.6668H22.1778ZM31.4122 45.3543L29.42 44.995C29.644 44.1929 30.0294 43.5991 30.5763 43.2137C31.1231 42.8283 31.9356 42.6356 33.0138 42.6356C33.9929 42.6356 34.7221 42.7528 35.2013 42.9872C35.6804 43.2163 36.0164 43.5106 36.2091 43.87C36.407 44.2241 36.506 44.8778 36.506 45.8309L36.4825 48.3934C36.4825 49.1226 36.5164 49.6616 36.5841 50.0106C36.657 50.3543 36.7898 50.7241 36.9825 51.12H34.8106C34.7534 50.9741 34.683 50.758 34.5997 50.4715C34.5632 50.3413 34.5372 50.2554 34.5216 50.2137C34.1466 50.5783 33.7455 50.8517 33.3185 51.034C32.8914 51.2163 32.4356 51.3075 31.9513 51.3075C31.0971 51.3075 30.4226 51.0757 29.9278 50.6122C29.4382 50.1486 29.1935 49.5627 29.1935 48.8543C29.1935 48.3856 29.3054 47.9689 29.5294 47.6043C29.7534 47.2345 30.0659 46.9533 30.4669 46.7606C30.8731 46.5627 31.4565 46.3908 32.2169 46.245C33.2429 46.0523 33.9539 45.8726 34.3497 45.7059V45.4872C34.3497 45.0653 34.2455 44.7658 34.0372 44.5887C33.8289 44.4064 33.4356 44.3153 32.8575 44.3153C32.4669 44.3153 32.1622 44.3934 31.9435 44.5497C31.7247 44.7007 31.5476 44.9689 31.4122 45.3543ZM34.3497 47.1356C34.0685 47.2293 33.6231 47.3413 33.0138 47.4715C32.4044 47.6017 32.006 47.7293 31.8185 47.8543C31.532 48.0575 31.3888 48.3153 31.3888 48.6278C31.3888 48.9351 31.5034 49.2007 31.7325 49.4247C31.9617 49.6486 32.2534 49.7606 32.6075 49.7606C33.0034 49.7606 33.381 49.6304 33.7403 49.37C34.006 49.172 34.1804 48.9299 34.2638 48.6434C34.3211 48.4559 34.3497 48.0991 34.3497 47.5731V47.1356ZM38.6153 42.8231H40.6622V44.0418C40.9278 43.6252 41.2872 43.2866 41.7403 43.0262C42.1935 42.7658 42.6961 42.6356 43.2481 42.6356C44.2117 42.6356 45.0294 43.0132 45.7013 43.7684C46.3731 44.5236 46.7091 45.5757 46.7091 46.9247C46.7091 48.3101 46.3705 49.3882 45.6935 50.159C45.0164 50.9247 44.1961 51.3075 43.2325 51.3075C42.7742 51.3075 42.3575 51.2163 41.9825 51.034C41.6127 50.8517 41.2221 50.5392 40.8106 50.0965V54.2762H38.6153V42.8231ZM40.7872 46.8309C40.7872 47.7632 40.9721 48.4533 41.3419 48.9012C41.7117 49.3439 42.1622 49.5653 42.6935 49.5653C43.2039 49.5653 43.6284 49.3622 43.9669 48.9559C44.3054 48.5444 44.4747 47.8726 44.4747 46.9403C44.4747 46.0705 44.3002 45.4247 43.9513 45.0028C43.6023 44.5809 43.17 44.37 42.6544 44.37C42.1179 44.37 41.6726 44.5783 41.3185 44.995C40.9643 45.4064 40.7872 46.0184 40.7872 46.8309ZM48.3966 42.8231H50.4435V44.0418C50.7091 43.6252 51.0685 43.2866 51.5216 43.0262C51.9747 42.7658 52.4773 42.6356 53.0294 42.6356C53.9929 42.6356 54.8106 43.0132 55.4825 43.7684C56.1544 44.5236 56.4903 45.5757 56.4903 46.9247C56.4903 48.3101 56.1518 49.3882 55.4747 50.159C54.7976 50.9247 53.9773 51.3075 53.0138 51.3075C52.5554 51.3075 52.1388 51.2163 51.7638 51.034C51.394 50.8517 51.0034 50.5392 50.5919 50.0965V54.2762H48.3966V42.8231ZM50.5685 46.8309C50.5685 47.7632 50.7534 48.4533 51.1231 48.9012C51.4929 49.3439 51.9435 49.5653 52.4747 49.5653C52.9851 49.5653 53.4096 49.3622 53.7481 48.9559C54.0867 48.5444 54.256 47.8726 54.256 46.9403C54.256 46.0705 54.0815 45.4247 53.7325 45.0028C53.3836 44.5809 52.9513 44.37 52.4356 44.37C51.8992 44.37 51.4539 44.5783 51.0997 44.995C50.7455 45.4064 50.5685 46.0184 50.5685 46.8309ZM57.2013 42.8231H59.5372L61.5216 48.7137L63.4591 42.8231H65.7325L62.8028 50.8075L62.2794 52.2528C62.0867 52.7372 61.9018 53.1069 61.7247 53.3622C61.5528 53.6174 61.3523 53.8231 61.1231 53.9793C60.8992 54.1408 60.6205 54.2658 60.2872 54.3543C59.9591 54.4429 59.5867 54.4872 59.17 54.4872C58.7481 54.4872 58.3341 54.4429 57.9278 54.3543L57.7325 52.6356C58.0763 52.7033 58.3862 52.7372 58.6622 52.7372C59.1726 52.7372 59.5502 52.5861 59.795 52.284C60.0398 51.9872 60.2273 51.6069 60.3575 51.1434L57.2013 42.8231Z" fill="black"/>
<path d="M64 63C56.8907 72.0555 38.3376 84.7331 21 63" stroke="black"/>
<path d="M51.5 4.99997L52.5103 8.10939H55.7798L53.1347 10.0311L54.145 13.1405L51.5 11.2188L48.855 13.1405L49.8653 10.0311L47.2202 8.10939H50.4897L51.5 4.99997Z" fill="#FF8A00"/>
<path d="M61.5 13L62.2858 15.4184H64.8287L62.7714 16.9131L63.5572 19.3315L61.5 17.8369L59.4428 19.3315L60.2286 16.9131L58.1713 15.4184H60.7142L61.5 13Z" fill="#FF8A00"/>
<path d="M20 30L21.1226 33.4549H24.7553L21.8164 35.5901L22.9389 39.0451L20 36.9098L17.0611 39.0451L18.1836 35.5901L15.2447 33.4549H18.8774L20 30Z" fill="#FF8A00"/>
</svg>
