<svg width="300" height="193" viewBox="0 0 300 193" fill="none" xmlns="http://www.w3.org/2000/svg">
<path d="M92.555 93.0052C92.7476 90.2505 95.1369 88.1736 97.8916 88.3662L285.434 101.48C288.188 101.673 290.265 104.062 290.073 106.817L284.411 187.789C284.218 190.544 281.829 192.621 279.074 192.428L91.5319 179.314C88.7772 179.121 86.7002 176.732 86.8929 173.977L92.555 93.0052Z" fill="#CCFF99"/>
<path d="M132.976 134.985L127.254 134.616C127.15 134.609 127.101 134.553 127.109 134.449L128.705 112.523C128.71 112.44 128.755 112.401 128.838 112.407L134.81 112.793C135.997 112.845 137.048 113.19 137.964 113.828C138.891 114.467 139.605 115.295 140.109 116.312C140.623 117.319 140.839 118.41 140.757 119.584L140.116 128.749C140.03 129.975 139.656 131.077 138.992 132.054C138.319 133.02 137.463 133.769 136.423 134.302C135.384 134.825 134.235 135.052 132.976 134.985ZM134.543 116.612L132.312 116.487L131.269 130.95L133.249 131.088C134.038 131.144 134.723 130.915 135.302 130.402C135.88 129.889 136.197 129.248 136.251 128.479L136.894 119.283C136.941 118.607 136.733 118.003 136.269 117.469C135.805 116.925 135.23 116.639 134.543 116.612ZM154.194 136.5L143.876 135.779C143.792 135.773 143.755 135.718 143.762 135.614L145.326 113.685C145.332 113.602 145.377 113.564 145.46 113.569L155.716 114.287C155.799 114.292 155.837 114.347 155.83 114.451L155.58 118.021C155.575 118.104 155.53 118.142 155.447 118.136L148.9 117.679L148.552 122.667L155.098 123.124C155.181 123.13 155.22 123.175 155.214 123.258L154.992 126.876C154.987 126.959 154.942 126.998 154.859 126.992L148.281 126.532L147.891 132.112L154.469 132.572C154.552 132.578 154.59 132.633 154.583 132.737L154.328 136.384C154.322 136.467 154.277 136.506 154.194 136.5ZM164.154 137.51C163.022 137.431 161.998 137.067 161.082 136.418C160.177 135.77 159.473 134.943 158.969 133.936C158.476 132.92 158.27 131.83 158.352 130.667L158.454 129.201C158.462 129.087 158.518 129.034 158.622 129.041L162.207 129.291C162.29 129.297 162.328 129.357 162.32 129.472L162.217 130.937C162.169 131.633 162.36 132.252 162.792 132.794C163.225 133.325 163.769 133.614 164.423 133.66C165.088 133.706 165.673 133.491 166.176 133.015C166.68 132.528 166.955 131.947 167.003 131.271C167.057 130.492 166.595 129.776 165.618 129.123C165.459 129.007 165.249 128.867 164.989 128.703C164.74 128.529 164.441 128.33 164.091 128.108C163.741 127.885 163.401 127.668 163.072 127.457C162.742 127.235 162.423 127.025 162.113 126.826C160.997 126.059 160.19 125.141 159.69 124.072C159.202 122.994 159.002 121.81 159.093 120.522C159.175 119.337 159.541 118.287 160.19 117.372C160.838 116.467 161.649 115.772 162.623 115.286C163.607 114.791 164.651 114.582 165.752 114.659C166.885 114.739 167.904 115.092 168.811 115.719C169.716 116.357 170.417 117.168 170.912 118.153C171.417 119.138 171.629 120.218 171.546 121.392L171.363 124.011C171.358 124.094 171.313 124.133 171.23 124.127L167.645 123.876C167.562 123.871 167.523 123.826 167.529 123.743L167.681 121.122C167.733 120.374 167.542 119.75 167.107 119.249C166.672 118.749 166.133 118.476 165.488 118.431C164.834 118.386 164.255 118.596 163.753 119.062C163.25 119.528 162.975 120.104 162.927 120.79C162.878 121.486 162.983 122.078 163.241 122.566C163.51 123.055 164.024 123.54 164.784 124.021C164.864 124.068 165.049 124.186 165.339 124.373C165.629 124.56 165.948 124.771 166.297 125.004C166.658 125.227 166.983 125.433 167.272 125.62C167.563 125.797 167.738 125.903 167.798 125.939C168.817 126.605 169.602 127.391 170.155 128.297C170.718 129.203 170.956 130.284 170.868 131.542C170.783 132.758 170.426 133.829 169.798 134.756C169.158 135.683 168.346 136.393 167.362 136.888C166.377 137.383 165.308 137.59 164.154 137.51ZM178.023 138.166L174.407 137.914C174.303 137.906 174.255 137.851 174.262 137.747L175.827 115.818C175.833 115.735 175.877 115.696 175.96 115.702L179.545 115.953C179.629 115.959 179.667 116.003 179.661 116.086L178.159 138.019C178.152 138.123 178.107 138.172 178.023 138.166ZM188.373 139.203C187.22 139.123 186.201 138.764 185.316 138.128C184.42 137.491 183.721 136.67 183.217 135.663C182.723 134.658 182.518 133.557 182.602 132.362L183.309 122.246C183.391 121.083 183.751 120.043 184.389 119.127C185.018 118.199 185.825 117.483 186.81 116.978C187.797 116.462 188.851 116.243 189.973 116.322C191.147 116.404 192.188 116.759 193.094 117.386C194 118.023 194.695 118.84 195.178 119.834C195.673 120.829 195.878 121.924 195.794 123.119L195.692 124.585C195.686 124.668 195.631 124.706 195.527 124.698L191.942 124.448C191.859 124.442 191.821 124.397 191.826 124.314L191.911 123.098C191.968 122.288 191.786 121.602 191.366 121.04C190.946 120.478 190.393 120.173 189.707 120.125C189.094 120.082 188.531 120.299 188.017 120.774C187.504 121.25 187.223 121.831 187.175 122.517L186.468 132.633C186.419 133.329 186.611 133.948 187.043 134.49C187.475 135.021 188.009 135.309 188.642 135.353C189.328 135.401 189.917 135.197 190.408 134.741C190.9 134.274 191.171 133.682 191.222 132.965L191.332 131.391L189.103 131.235C188.988 131.227 188.935 131.171 188.942 131.067L189.192 127.498C189.199 127.394 189.26 127.346 189.374 127.354L195.344 127.771C195.427 127.777 195.465 127.832 195.458 127.936L195.087 133.235C195.004 134.43 194.647 135.491 194.019 136.419C193.38 137.345 192.572 138.061 191.597 138.567C190.622 139.073 189.547 139.285 188.373 139.203ZM201.993 139.843L198.798 139.619C198.631 139.607 198.553 139.529 198.564 139.383L200.053 117.637C200.065 117.471 200.153 117.394 200.32 117.406L203.203 117.607L207.717 130.563L208.423 118.223C208.435 118.057 208.534 117.98 208.721 117.993L211.885 118.214C212.01 118.223 212.066 118.31 212.055 118.477L210.563 140.254C210.555 140.379 210.498 140.437 210.394 140.43L207.589 140.234L202.877 128.094L202.307 139.614C202.295 139.78 202.19 139.856 201.993 139.843Z" fill="black"/>
<path d="M157.619 165.432L154.003 165.179C153.92 165.173 153.882 165.118 153.89 165.015L155.485 143.088C155.491 143.005 155.536 142.966 155.619 142.972L159.516 143.245C159.599 143.25 159.669 143.297 159.725 143.385L162.346 147.797L165.539 143.791C165.607 143.712 165.688 143.676 165.781 143.683L169.694 143.956C169.787 143.963 169.831 144.008 169.825 144.091L168.354 166.026C168.347 166.13 168.302 166.179 168.219 166.173L164.602 165.92C164.519 165.915 164.481 165.86 164.489 165.756L165.596 149.465L161.905 154.094L158.925 148.999L157.755 165.285C157.748 165.389 157.703 165.438 157.619 165.432ZM178.506 167.206C177.373 167.127 176.349 166.763 175.434 166.114C174.529 165.466 173.82 164.638 173.305 163.631C172.802 162.614 172.591 161.524 172.672 160.36L173.411 150.247C173.494 149.062 173.854 148.017 174.492 147.111C175.12 146.194 175.932 145.484 176.928 144.979C177.924 144.464 178.984 144.246 180.106 144.324C181.27 144.406 182.294 144.764 183.179 145.401C184.074 146.037 184.769 146.859 185.262 147.864C185.767 148.86 185.978 149.945 185.896 151.12L185.22 161.238C185.139 162.402 184.783 163.447 184.155 164.374C183.515 165.311 182.702 166.037 181.716 166.553C180.729 167.069 179.659 167.286 178.506 167.206ZM178.775 163.356C179.419 163.401 179.999 163.18 180.513 162.694C181.028 162.198 181.309 161.622 181.354 160.967L182.031 150.849C182.08 150.143 181.898 149.53 181.486 149.01C181.073 148.49 180.524 148.207 179.838 148.159C179.183 148.113 178.605 148.313 178.104 148.758C177.603 149.203 177.327 149.79 177.277 150.517L176.569 160.633C176.52 161.329 176.712 161.948 177.144 162.49C177.577 163.021 178.121 163.31 178.775 163.356ZM194.66 168.335C193.507 168.255 192.472 167.89 191.557 167.241C190.652 166.593 189.953 165.761 189.461 164.745C188.979 163.72 188.78 162.604 188.864 161.399L189.592 151.441C189.675 150.256 190.02 149.205 190.627 148.287C191.235 147.358 192.032 146.636 193.018 146.12C194.016 145.594 195.097 145.372 196.26 145.454C197.445 145.537 198.48 145.896 199.365 146.532C200.26 147.169 200.949 147.995 201.431 149.011C201.925 150.016 202.13 151.117 202.046 152.312L201.944 153.777C201.938 153.86 201.893 153.899 201.81 153.893L198.225 153.642C198.142 153.636 198.103 153.592 198.109 153.509L198.212 152.043C198.261 151.337 198.075 150.713 197.653 150.172C197.232 149.631 196.678 149.336 195.992 149.288C195.234 149.235 194.634 149.454 194.192 149.945C193.75 150.437 193.506 151.025 193.458 151.711L192.761 161.671C192.707 162.45 192.891 163.106 193.313 163.636C193.736 164.157 194.275 164.44 194.93 164.485C195.615 164.533 196.206 164.303 196.701 163.795C197.196 163.276 197.468 162.679 197.515 162.004L197.619 160.523C197.625 160.44 197.669 160.401 197.752 160.407L201.368 160.66C201.451 160.665 201.49 160.71 201.484 160.793L201.381 162.274C201.297 163.469 200.94 164.54 200.31 165.488C199.67 166.425 198.862 167.157 197.885 167.684C196.91 168.2 195.835 168.418 194.66 168.335ZM208.607 168.997L204.991 168.745C204.908 168.739 204.87 168.684 204.877 168.58L206.471 146.685C206.478 146.581 206.524 146.532 206.607 146.538L210.192 146.788C210.275 146.794 210.313 146.849 210.306 146.953L209.777 154.513L215.311 147.272C215.4 147.194 215.481 147.158 215.554 147.163L219.217 147.419C219.31 147.426 219.328 147.469 219.27 147.548L213.137 155.969L218.405 169.557C218.451 169.644 218.396 169.682 218.24 169.671L214.343 169.399C214.24 169.391 214.18 169.345 214.165 169.261L210.504 159.576L209.275 161.244L208.743 168.85C208.736 168.954 208.691 169.003 208.607 168.997ZM227.281 170.616C226.158 170.538 225.14 170.174 224.224 169.526C223.309 168.877 222.6 168.044 222.096 167.027C221.604 166.001 221.399 164.906 221.48 163.742L222.659 147.785C222.665 147.702 222.709 147.664 222.792 147.669L226.377 147.92C226.46 147.926 226.499 147.97 226.493 148.053L225.377 164.014C225.327 164.731 225.513 165.361 225.934 165.902C226.357 166.432 226.895 166.721 227.55 166.767C228.236 166.814 228.825 166.605 229.317 166.138C229.81 165.661 230.081 165.064 230.131 164.347L231.247 148.386C231.253 148.303 231.298 148.264 231.381 148.27L234.966 148.521C235.049 148.526 235.087 148.571 235.082 148.654L234.028 164.619C233.946 165.794 233.59 166.855 232.96 167.803C232.32 168.739 231.507 169.466 230.52 169.982C229.535 170.487 228.455 170.699 227.281 170.616ZM241.446 171.294L237.861 171.043C237.757 171.036 237.709 170.98 237.716 170.876L239.312 148.95C239.318 148.867 239.362 148.828 239.445 148.834L245.587 149.263C247.54 149.4 249.042 150.105 250.091 151.38C251.151 152.644 251.609 154.3 251.466 156.347C251.362 157.843 250.974 159.127 250.304 160.197C249.624 161.256 248.786 162.054 247.787 162.59C246.789 163.126 245.729 163.354 244.607 163.276L242.175 163.106L241.613 171.149C241.606 171.253 241.55 171.301 241.446 171.294ZM245.322 153.051L242.888 152.912L242.446 159.24L244.877 159.41C245.553 159.458 246.162 159.177 246.706 158.567C247.251 157.947 247.559 157.118 247.632 156.079C247.69 155.248 247.514 154.551 247.104 153.99C246.695 153.418 246.101 153.105 245.322 153.051Z" fill="black"/>
<rect x="13.8769" y="48.2787" width="197.661" height="64" rx="9" transform="rotate(-2.43804 13.8769 48.2787)" fill="#302F2D" stroke="white" stroke-width="2"/>
<path d="M33.8629 71.501L37.3285 71.3534L37.7243 80.6497C37.7871 82.1249 37.8708 83.0792 37.9752 83.5127C38.1534 84.2088 38.5288 84.7598 39.1012 85.1655C39.6812 85.5631 40.4551 85.7412 41.423 85.7C42.4064 85.6581 43.1395 85.4275 43.6221 85.0082C44.1044 84.581 44.3838 84.0726 44.4603 83.4829C44.5368 82.8931 44.5462 81.9192 44.4884 80.5611L44.0841 71.0658L47.5497 70.9182L47.9336 79.9335C48.0213 81.9941 47.9896 83.4538 47.8385 84.3126C47.6874 85.1713 47.3706 85.9042 46.8882 86.5112C46.4136 87.1179 45.7622 87.6148 44.9342 88.002C44.1059 88.3813 43.0126 88.5999 41.6545 88.6577C40.0153 88.7275 38.7624 88.5932 37.8956 88.2547C37.0364 87.9082 36.3481 87.4448 35.8307 86.8647C35.3131 86.2769 34.9621 85.6545 34.7777 84.9977C34.5095 84.0238 34.3345 82.5769 34.2527 80.6567L33.8629 71.501ZM51.8398 87.9308L51.109 70.7667L54.5746 70.6191L55.3054 87.7832L51.8398 87.9308ZM56.8516 88.0106L60.3459 70.0801L62.8164 69.975L59.2752 87.9074L56.8516 88.0106ZM64.5382 70.1949L68.0038 70.0473L68.3996 79.3436C68.4625 80.8188 68.5461 81.7731 68.6506 82.2066C68.8288 82.9028 69.2041 83.4537 69.7766 83.8594C70.3565 84.257 71.1304 84.4352 72.0983 84.3939C73.0818 84.3521 73.8148 84.1215 74.2974 83.7021C74.7797 83.275 75.0591 82.7665 75.1356 82.1768C75.2122 81.5871 75.2215 80.6131 75.1637 79.255L74.7594 69.7597L78.225 69.6121L78.6089 78.6274C78.6966 80.688 78.6649 82.1477 78.5138 83.0065C78.3627 83.8653 78.046 84.5981 77.5635 85.2052C77.0889 85.8118 76.4376 86.3087 75.6096 86.6959C74.7812 87.0752 73.6879 87.2938 72.3298 87.3516C70.6906 87.4214 69.4377 87.2871 68.571 86.9486C67.7117 86.6021 67.0234 86.1387 66.5061 85.5587C65.9884 84.9708 65.6374 84.3484 65.453 83.6916C65.1848 82.7178 65.0098 81.2708 64.928 79.3506L64.5382 70.1949ZM80.876 86.6945L86.3604 77.488L80.6955 69.5069L84.7465 69.3345L88.4235 74.7024L91.5606 69.0443L95.5765 68.8733L90.5925 77.4369L96.8342 86.015L92.6544 86.193L88.5965 80.419L85.0324 86.5175L80.876 86.6945ZM104.545 68.4915L110.879 68.2218C112.307 68.161 113.401 68.2239 114.16 68.4105C115.179 68.6643 116.064 69.1544 116.814 69.881C117.565 70.6075 118.151 71.5131 118.572 72.5977C118.993 73.6745 119.238 75.0169 119.307 76.6248C119.367 78.0376 119.243 79.2627 118.935 80.3002C118.559 81.5673 117.989 82.6042 117.226 83.4109C116.65 84.0219 115.858 84.513 114.849 84.8844C114.095 85.1589 113.077 85.3235 111.797 85.378L105.276 85.6556L104.545 68.4915ZM108.134 71.2475L108.618 82.6162L111.206 82.506C112.174 82.4648 112.87 82.3804 113.295 82.2528C113.851 82.0884 114.305 81.8306 114.657 81.4793C115.018 81.1277 115.299 80.5645 115.5 79.7896C115.702 79.0069 115.774 77.9521 115.717 76.6251C115.661 75.2982 115.501 74.2846 115.236 73.5843C114.972 72.884 114.62 72.3437 114.182 71.9636C113.743 71.5835 113.197 71.3369 112.543 71.224C112.055 71.1354 111.104 71.1211 109.691 71.1812L108.134 71.2475ZM122.616 84.9173L121.885 67.7532L134.611 67.2113L134.735 70.1149L125.474 70.5093L125.636 74.3144L134.253 73.9475L134.376 76.8394L125.759 77.2063L125.958 81.8779L135.547 81.4696L135.67 84.3615L122.616 84.9173ZM137.493 78.689L140.851 78.2176C141.102 79.3407 141.547 80.1546 142.186 80.6591C142.833 81.1633 143.684 81.3929 144.738 81.3481C145.854 81.3005 146.683 81.0306 147.225 80.5384C147.774 80.038 148.036 79.4717 148.009 78.8394C147.992 78.4336 147.856 78.0953 147.602 77.8246C147.356 77.5457 146.931 77.3136 146.329 77.1281C145.917 77.0049 144.982 76.7945 143.522 76.4969C141.645 76.1155 140.317 75.6051 139.54 74.9657C138.446 74.0662 137.87 72.9373 137.812 71.5791C137.775 70.7049 137.986 69.8788 138.445 69.1007C138.912 68.3145 139.602 67.7026 140.514 67.265C141.433 66.827 142.553 66.58 143.872 66.5238C146.026 66.4321 147.666 66.8354 148.791 67.7336C149.924 68.6315 150.551 69.8677 150.673 71.4421L147.214 71.7418C147.028 70.8661 146.681 70.2475 146.173 69.886C145.673 69.5163 144.935 69.3523 143.959 69.3938C142.952 69.4367 142.172 69.6771 141.62 70.115C141.265 70.396 141.096 70.759 141.115 71.2039C141.133 71.6098 141.319 71.9498 141.675 72.224C142.128 72.5722 143.205 72.9095 144.908 73.2358C146.611 73.5621 147.874 73.9228 148.696 74.3178C149.526 74.7048 150.183 75.2594 150.667 75.9816C151.159 76.6957 151.428 77.5952 151.474 78.6802C151.516 79.6637 151.282 80.5963 150.772 81.4782C150.262 82.3601 149.517 83.033 148.536 83.497C147.554 83.9533 146.318 84.2131 144.827 84.2766C142.657 84.369 140.969 83.9404 139.764 82.9908C138.558 82.0334 137.801 80.5995 137.493 78.689ZM154.497 83.5599L153.766 66.3958L157.232 66.2482L157.962 83.4124L154.497 83.5599ZM168.992 76.6206L168.869 73.7287L176.339 73.4107L176.63 80.2482C175.934 80.9816 174.907 81.647 173.548 82.2444C172.197 82.8337 170.815 83.1584 169.402 83.2185C167.607 83.295 166.026 82.9869 164.659 82.2944C163.292 81.5941 162.243 80.5597 161.513 79.1911C160.782 77.8147 160.381 76.303 160.311 74.6561C160.235 72.8687 160.542 71.2643 161.232 69.843C161.922 68.4218 162.973 67.3096 164.386 66.5066C165.462 65.89 166.82 65.5467 168.459 65.477C170.59 65.3862 172.271 65.7642 173.504 66.611C174.744 67.4497 175.569 68.65 175.98 70.2121L172.565 71.0026C172.287 70.1699 171.802 69.5259 171.11 69.0705C170.426 68.6071 169.584 68.3966 168.585 68.4391C167.071 68.5036 165.885 69.035 165.029 70.0333C164.18 71.0312 163.795 72.4746 163.876 74.3636C163.963 76.4008 164.48 77.9114 165.429 78.8953C166.378 79.8715 167.586 80.3283 169.053 80.2658C169.779 80.2349 170.499 80.0635 171.213 79.7516C171.935 79.4316 172.548 79.0575 173.054 78.6293L172.961 76.4516L168.992 76.6206ZM179.974 82.4752L179.243 65.311L182.615 65.1675L190.128 76.3306L189.64 64.8684L192.859 64.7313L193.59 81.8954L190.113 82.0435L182.717 71.1451L183.193 82.3381L179.974 82.4752Z" fill="white"/>
</svg>
