<svg width="346" height="112" viewBox="0 0 346 112" fill="none" xmlns="http://www.w3.org/2000/svg">
<rect x="61.2383" y="3.48663" width="218.888" height="105.027" stroke="white"/>
<rect x="277.393" y="-3.05176e-05" width="6.46729" height="8.96" fill="#D9D9D9"/>
<rect x="58.5825" y="-3.05176e-05" width="6.46729" height="8.96" fill="#D9D9D9"/>
<rect x="58.5825" y="103.04" width="6.46729" height="8.96" fill="#D9D9D9"/>
<rect x="277.393" y="103.04" width="6.46729" height="8.96" fill="#D9D9D9"/>
<path d="M103.269 52H99.6438C99.5604 52 99.5188 51.9479 99.5188 51.8437L99.5813 29.8593C99.5813 29.776 99.6229 29.7343 99.7063 29.7343H106.175C107.331 29.7343 108.394 30.0156 109.363 30.5781C110.331 31.1406 111.102 31.8958 111.675 32.8437C112.258 33.7916 112.55 34.8646 112.55 36.0625C112.55 36.8437 112.43 37.5521 112.191 38.1875C111.951 38.8229 111.67 39.3593 111.347 39.7968C111.034 40.2343 110.748 40.5573 110.488 40.7656C111.644 42.0468 112.222 43.5521 112.222 45.2812L112.253 51.8437C112.253 51.9479 112.201 52 112.097 52H108.472C108.389 52 108.347 51.9687 108.347 51.9062V45.2812C108.347 44.5104 108.076 43.8437 107.534 43.2812C106.993 42.7187 106.326 42.4375 105.534 42.4375H103.425L103.394 51.8437C103.394 51.9479 103.352 52 103.269 52ZM106.175 33.5625H103.425V38.5937H106.175C106.831 38.5937 107.415 38.3489 107.925 37.8593C108.446 37.3698 108.706 36.7708 108.706 36.0625C108.706 35.3854 108.456 34.8021 107.956 34.3125C107.456 33.8125 106.863 33.5625 106.175 33.5625ZM127.025 52H116.681C116.598 52 116.556 51.9479 116.556 51.8437L116.588 29.8593C116.588 29.776 116.629 29.7343 116.713 29.7343H126.994C127.077 29.7343 127.119 29.7864 127.119 29.8906V33.4687C127.119 33.5521 127.077 33.5937 126.994 33.5937H120.431V38.5937H126.994C127.077 38.5937 127.119 38.6354 127.119 38.7187L127.15 42.3437C127.15 42.4271 127.108 42.4687 127.025 42.4687H120.431V48.0625H127.025C127.108 48.0625 127.15 48.1146 127.15 48.2187V51.875C127.15 51.9583 127.108 52 127.025 52ZM137.031 52.3125C135.896 52.3125 134.849 52.0208 133.891 51.4375C132.943 50.8541 132.182 50.0781 131.609 49.1093C131.047 48.1302 130.766 47.0573 130.766 45.8906V44.4218C130.766 44.3073 130.818 44.25 130.922 44.25H134.516C134.599 44.25 134.641 44.3073 134.641 44.4218V45.8906C134.641 46.5885 134.875 47.1927 135.344 47.7031C135.812 48.2031 136.375 48.4531 137.031 48.4531C137.698 48.4531 138.266 48.1979 138.734 47.6875C139.203 47.1666 139.438 46.5677 139.438 45.8906C139.438 45.1093 138.927 44.4271 137.906 43.8437C137.74 43.7396 137.521 43.6146 137.25 43.4687C136.99 43.3125 136.677 43.1354 136.312 42.9375C135.948 42.7396 135.594 42.5468 135.25 42.3593C134.906 42.1614 134.573 41.9739 134.25 41.7968C133.083 41.1093 132.214 40.25 131.641 39.2187C131.078 38.1771 130.797 37.0104 130.797 35.7187C130.797 34.5312 131.089 33.4583 131.672 32.5C132.255 31.5521 133.016 30.8021 133.953 30.25C134.901 29.6875 135.927 29.4062 137.031 29.4062C138.167 29.4062 139.208 29.6875 140.156 30.25C141.104 30.8229 141.859 31.5833 142.422 32.5312C142.995 33.4791 143.281 34.5416 143.281 35.7187V38.3437C143.281 38.4271 143.24 38.4687 143.156 38.4687H139.562C139.479 38.4687 139.438 38.4271 139.438 38.3437L139.406 35.7187C139.406 34.9687 139.172 34.3593 138.703 33.8906C138.234 33.4218 137.677 33.1875 137.031 33.1875C136.375 33.1875 135.812 33.4375 135.344 33.9375C134.875 34.4375 134.641 35.0312 134.641 35.7187C134.641 36.4166 134.786 37 135.078 37.4687C135.38 37.9375 135.927 38.3854 136.719 38.8125C136.802 38.8541 136.995 38.9583 137.297 39.125C137.599 39.2916 137.932 39.4791 138.297 39.6875C138.672 39.8854 139.01 40.0677 139.312 40.2343C139.615 40.3906 139.797 40.4843 139.859 40.5156C140.922 41.1093 141.76 41.8385 142.375 42.7031C143 43.5677 143.312 44.6302 143.312 45.8906C143.312 47.1093 143.031 48.2031 142.469 49.1718C141.896 50.1406 141.135 50.9062 140.188 51.4687C139.24 52.0312 138.188 52.3125 137.031 52.3125ZM150.881 52H147.288C147.183 52 147.131 51.9479 147.131 51.8437L147.194 29.8593C147.194 29.776 147.235 29.7343 147.319 29.7343H153.475C155.433 29.7343 156.98 30.3333 158.116 31.5312C159.261 32.7187 159.834 34.3385 159.834 36.3906C159.834 37.8906 159.538 39.1979 158.944 40.3125C158.34 41.4166 157.558 42.2708 156.6 42.875C155.642 43.4791 154.6 43.7812 153.475 43.7812H151.038V51.8437C151.038 51.9479 150.985 52 150.881 52ZM153.475 33.5312L151.038 33.5625V39.9062H153.475C154.152 39.9062 154.741 39.5833 155.241 38.9375C155.741 38.2812 155.991 37.4323 155.991 36.3906C155.991 35.5573 155.767 34.875 155.319 34.3437C154.871 33.8021 154.256 33.5312 153.475 33.5312ZM169.528 52.3125C168.393 52.3125 167.346 52.0208 166.388 51.4375C165.44 50.8541 164.674 50.0781 164.091 49.1093C163.518 48.1302 163.231 47.0573 163.231 45.8906L163.263 35.75C163.263 34.5625 163.549 33.4948 164.122 32.5468C164.684 31.5885 165.445 30.8229 166.403 30.25C167.361 29.6666 168.403 29.375 169.528 29.375C170.695 29.375 171.742 29.6614 172.669 30.2343C173.606 30.8073 174.356 31.5781 174.919 32.5468C175.492 33.5052 175.778 34.5729 175.778 35.75L175.809 45.8906C175.809 47.0573 175.528 48.125 174.966 49.0937C174.393 50.0729 173.632 50.8541 172.684 51.4375C171.736 52.0208 170.684 52.3125 169.528 52.3125ZM169.528 48.4531C170.174 48.4531 170.736 48.1927 171.216 47.6718C171.695 47.1406 171.934 46.5468 171.934 45.8906L171.903 35.75C171.903 35.0416 171.679 34.4427 171.231 33.9531C170.783 33.4635 170.216 33.2187 169.528 33.2187C168.872 33.2187 168.309 33.4583 167.841 33.9375C167.372 34.4166 167.138 35.0208 167.138 35.75V45.8906C167.138 46.5885 167.372 47.1927 167.841 47.7031C168.309 48.2031 168.872 48.4531 169.528 48.4531ZM183.316 52H180.113C179.946 52 179.863 51.9271 179.863 51.7812L179.831 29.9843C179.831 29.8177 179.915 29.7343 180.081 29.7343H182.972L188.378 42.3437L188.222 29.9843C188.222 29.8177 188.316 29.7343 188.503 29.7343H191.675C191.8 29.7343 191.863 29.8177 191.863 29.9843L191.894 51.8125C191.894 51.9375 191.842 52 191.738 52H188.925L183.378 40.2187L183.613 51.75C183.613 51.9166 183.514 52 183.316 52ZM201.712 52.3125C200.577 52.3125 199.53 52.0208 198.572 51.4375C197.624 50.8541 196.864 50.0781 196.291 49.1093C195.728 48.1302 195.447 47.0573 195.447 45.8906V44.4218C195.447 44.3073 195.499 44.25 195.603 44.25H199.197C199.28 44.25 199.322 44.3073 199.322 44.4218V45.8906C199.322 46.5885 199.556 47.1927 200.025 47.7031C200.494 48.2031 201.056 48.4531 201.712 48.4531C202.379 48.4531 202.947 48.1979 203.416 47.6875C203.884 47.1666 204.119 46.5677 204.119 45.8906C204.119 45.1093 203.608 44.4271 202.587 43.8437C202.421 43.7396 202.202 43.6146 201.931 43.4687C201.671 43.3125 201.358 43.1354 200.994 42.9375C200.629 42.7396 200.275 42.5468 199.931 42.3593C199.587 42.1614 199.254 41.9739 198.931 41.7968C197.765 41.1093 196.895 40.25 196.322 39.2187C195.759 38.1771 195.478 37.0104 195.478 35.7187C195.478 34.5312 195.77 33.4583 196.353 32.5C196.936 31.5521 197.697 30.8021 198.634 30.25C199.582 29.6875 200.608 29.4062 201.712 29.4062C202.848 29.4062 203.89 29.6875 204.837 30.25C205.785 30.8229 206.541 31.5833 207.103 32.5312C207.676 33.4791 207.962 34.5416 207.962 35.7187V38.3437C207.962 38.4271 207.921 38.4687 207.837 38.4687H204.244C204.16 38.4687 204.119 38.4271 204.119 38.3437L204.087 35.7187C204.087 34.9687 203.853 34.3593 203.384 33.8906C202.916 33.4218 202.358 33.1875 201.712 33.1875C201.056 33.1875 200.494 33.4375 200.025 33.9375C199.556 34.4375 199.322 35.0312 199.322 35.7187C199.322 36.4166 199.468 37 199.759 37.4687C200.061 37.9375 200.608 38.3854 201.4 38.8125C201.483 38.8541 201.676 38.9583 201.978 39.125C202.28 39.2916 202.614 39.4791 202.978 39.6875C203.353 39.8854 203.692 40.0677 203.994 40.2343C204.296 40.3906 204.478 40.4843 204.541 40.5156C205.603 41.1093 206.442 41.8385 207.056 42.7031C207.681 43.5677 207.994 44.6302 207.994 45.8906C207.994 47.1093 207.712 48.2031 207.15 49.1718C206.577 50.1406 205.817 50.9062 204.869 51.4687C203.921 52.0312 202.869 52.3125 201.712 52.3125ZM215.594 52H211.969C211.865 52 211.812 51.9479 211.812 51.8437L211.844 29.8593C211.844 29.776 211.885 29.7343 211.969 29.7343H215.562C215.646 29.7343 215.688 29.776 215.688 29.8593L215.719 51.8437C215.719 51.9479 215.677 52 215.594 52ZM227.6 52H223.725C223.631 52 223.579 51.9479 223.569 51.8437L219.147 29.8593C219.126 29.776 219.168 29.7343 219.272 29.7343H222.897C222.98 29.7343 223.032 29.776 223.053 29.8593L225.678 44.5156L228.241 29.8593C228.261 29.776 228.314 29.7343 228.397 29.7343H231.975C232.09 29.7343 232.131 29.776 232.1 29.8593L227.756 51.8437C227.746 51.9479 227.694 52 227.6 52ZM246.044 52H235.7C235.617 52 235.575 51.9479 235.575 51.8437L235.606 29.8593C235.606 29.776 235.648 29.7343 235.731 29.7343H246.012C246.096 29.7343 246.137 29.7864 246.137 29.8906V33.4687C246.137 33.5521 246.096 33.5937 246.012 33.5937H239.45V38.5937H246.012C246.096 38.5937 246.137 38.6354 246.137 38.7187L246.169 42.3437C246.169 42.4271 246.127 42.4687 246.044 42.4687H239.45V48.0625H246.044C246.127 48.0625 246.169 48.1146 246.169 48.2187V51.875C246.169 51.9583 246.127 52 246.044 52Z" fill="#E4E4E4"/>
<path d="M106.784 83H102.909C102.816 83 102.764 82.9479 102.753 82.8438L98.9719 60.8594C98.951 60.776 98.9823 60.7344 99.0656 60.7344H102.659C102.743 60.7344 102.795 60.776 102.816 60.8594L104.863 75.3125L106.972 60.8594C106.993 60.776 107.055 60.7344 107.159 60.7344H110.05C110.133 60.7344 110.185 60.776 110.206 60.8594L112.284 75.3125L114.363 60.8594C114.383 60.776 114.435 60.7344 114.519 60.7344H118.081C118.185 60.7344 118.227 60.776 118.206 60.8594L114.394 82.8438C114.383 82.8854 114.352 82.9219 114.3 82.9531L114.238 83H110.363C110.3 83 110.248 82.9479 110.206 82.8438L108.566 71.3594L106.941 82.8438C106.93 82.9479 106.878 83 106.784 83ZM130.213 83H119.869C119.785 83 119.744 82.9479 119.744 82.8438L119.775 60.8594C119.775 60.776 119.817 60.7344 119.9 60.7344H130.181C130.265 60.7344 130.306 60.7865 130.306 60.8906V64.4688C130.306 64.5521 130.265 64.5938 130.181 64.5938H123.619V69.5938H130.181C130.265 69.5938 130.306 69.6354 130.306 69.7188L130.338 73.3438C130.338 73.4271 130.296 73.4688 130.213 73.4688H123.619V79.0625H130.213C130.296 79.0625 130.338 79.1146 130.338 79.2188V82.875C130.338 82.9583 130.296 83 130.213 83ZM140.641 83H134.906C134.823 83 134.781 82.9479 134.781 82.8438L134.844 60.8594C134.844 60.776 134.885 60.7344 134.969 60.7344H141.125C142.323 60.7344 143.411 61.026 144.391 61.6094C145.349 62.1927 146.104 62.9688 146.656 63.9375C147.208 64.8958 147.484 65.9375 147.484 67.0625C147.484 67.9792 147.276 68.8333 146.859 69.625C146.443 70.4167 145.948 71.0573 145.375 71.5469C145.99 72.1615 146.469 72.875 146.812 73.6875C147.156 74.5 147.328 75.3542 147.328 76.25C147.328 77.4896 147.031 78.6198 146.438 79.6406C145.833 80.6615 145.026 81.4792 144.016 82.0938C143.005 82.6979 141.88 83 140.641 83ZM141.125 64.5312H138.688V69.5625H141.125C141.865 69.5625 142.464 69.3021 142.922 68.7812C143.38 68.25 143.609 67.6771 143.609 67.0625C143.609 66.3854 143.365 65.7969 142.875 65.2969C142.385 64.7865 141.802 64.5312 141.125 64.5312ZM140.641 73.4375H138.688L138.656 79.0938H140.641C141.411 79.0938 142.073 78.8125 142.625 78.25C143.177 77.6875 143.453 77.0208 143.453 76.25C143.453 75.4792 143.177 74.8177 142.625 74.2656C142.073 73.7135 141.411 73.4375 140.641 73.4375ZM167.028 82.9688L161.294 83C161.19 83 161.138 82.9479 161.138 82.8438L161.2 60.8594C161.2 60.776 161.242 60.7344 161.325 60.7344L167.309 60.7031C168.497 60.6719 169.57 60.9427 170.528 61.5156C171.497 62.0885 172.268 62.8646 172.841 63.8438C173.424 64.8125 173.716 65.8854 173.716 67.0625V76.25C173.716 77.4792 173.419 78.6042 172.825 79.625C172.221 80.6354 171.419 81.4427 170.419 82.0469C169.419 82.6406 168.289 82.9479 167.028 82.9688ZM167.309 64.5312L165.075 64.5625L165.044 79.0625H167.028C167.82 79.0625 168.486 78.7865 169.028 78.2344C169.57 77.6823 169.841 77.0208 169.841 76.25V67.0312C169.841 66.3542 169.591 65.7656 169.091 65.2656C168.591 64.7552 167.997 64.5104 167.309 64.5312ZM188.3 83H177.956C177.873 83 177.831 82.9479 177.831 82.8438L177.863 60.8594C177.863 60.776 177.904 60.7344 177.988 60.7344H188.269C188.352 60.7344 188.394 60.7865 188.394 60.8906V64.4688C188.394 64.5521 188.352 64.5938 188.269 64.5938H181.706V69.5938H188.269C188.352 69.5938 188.394 69.6354 188.394 69.7188L188.425 73.3438C188.425 73.4271 188.383 73.4688 188.3 73.4688H181.706V79.0625H188.3C188.383 79.0625 188.425 79.1146 188.425 79.2188V82.875C188.425 82.9583 188.383 83 188.3 83ZM198.306 83.3125C197.171 83.3125 196.124 83.0208 195.166 82.4375C194.218 81.8542 193.457 81.0781 192.884 80.1094C192.322 79.1302 192.041 78.0573 192.041 76.8906V75.4219C192.041 75.3073 192.093 75.25 192.197 75.25H195.791C195.874 75.25 195.916 75.3073 195.916 75.4219V76.8906C195.916 77.5885 196.15 78.1927 196.619 78.7031C197.087 79.2031 197.65 79.4531 198.306 79.4531C198.973 79.4531 199.541 79.1979 200.009 78.6875C200.478 78.1667 200.712 77.5677 200.712 76.8906C200.712 76.1094 200.202 75.4271 199.181 74.8438C199.015 74.7396 198.796 74.6146 198.525 74.4688C198.265 74.3125 197.952 74.1354 197.587 73.9375C197.223 73.7396 196.869 73.5469 196.525 73.3594C196.181 73.1615 195.848 72.974 195.525 72.7969C194.358 72.1094 193.489 71.25 192.916 70.2188C192.353 69.1771 192.072 68.0104 192.072 66.7188C192.072 65.5312 192.364 64.4583 192.947 63.5C193.53 62.5521 194.291 61.8021 195.228 61.25C196.176 60.6875 197.202 60.4062 198.306 60.4062C199.442 60.4062 200.483 60.6875 201.431 61.25C202.379 61.8229 203.134 62.5833 203.697 63.5312C204.27 64.4792 204.556 65.5417 204.556 66.7188V69.3438C204.556 69.4271 204.515 69.4688 204.431 69.4688H200.837C200.754 69.4688 200.712 69.4271 200.712 69.3438L200.681 66.7188C200.681 65.9688 200.447 65.3594 199.978 64.8906C199.509 64.4219 198.952 64.1875 198.306 64.1875C197.65 64.1875 197.087 64.4375 196.619 64.9375C196.15 65.4375 195.916 66.0312 195.916 66.7188C195.916 67.4167 196.061 68 196.353 68.4688C196.655 68.9375 197.202 69.3854 197.994 69.8125C198.077 69.8542 198.27 69.9583 198.572 70.125C198.874 70.2917 199.207 70.4792 199.572 70.6875C199.947 70.8854 200.285 71.0677 200.587 71.2344C200.89 71.3906 201.072 71.4844 201.134 71.5156C202.197 72.1094 203.035 72.8385 203.65 73.7031C204.275 74.5677 204.587 75.6302 204.587 76.8906C204.587 78.1094 204.306 79.2031 203.744 80.1719C203.171 81.1406 202.41 81.9062 201.462 82.4688C200.515 83.0312 199.462 83.3125 198.306 83.3125ZM212.188 83H208.562C208.458 83 208.406 82.9479 208.406 82.8438L208.438 60.8594C208.438 60.776 208.479 60.7344 208.562 60.7344H212.156C212.24 60.7344 212.281 60.776 212.281 60.8594L212.312 82.8438C212.312 82.9479 212.271 83 212.188 83ZM222.584 83.3125C221.428 83.3125 220.386 83.026 219.459 82.4531C218.522 81.8802 217.767 81.1094 217.194 80.1406C216.631 79.1719 216.35 78.0885 216.35 76.8906V66.75C216.35 65.5833 216.636 64.5208 217.209 63.5625C217.772 62.5938 218.527 61.8229 219.475 61.25C220.423 60.6667 221.459 60.375 222.584 60.375C223.761 60.375 224.824 60.6562 225.772 61.2188C226.72 61.7917 227.47 62.5573 228.022 63.5156C228.584 64.474 228.866 65.5521 228.866 66.75V68.2188C228.866 68.3021 228.814 68.3438 228.709 68.3438H225.116C225.032 68.3438 224.991 68.3021 224.991 68.2188V67C224.991 66.1875 224.761 65.5156 224.303 64.9844C223.845 64.4531 223.272 64.1875 222.584 64.1875C221.97 64.1875 221.423 64.4427 220.944 64.9531C220.465 65.4635 220.225 66.0625 220.225 66.75V76.8906C220.225 77.5885 220.459 78.1927 220.928 78.7031C221.397 79.2031 221.949 79.4531 222.584 79.4531C223.272 79.4531 223.845 79.2083 224.303 78.7188C224.761 78.2188 224.991 77.6094 224.991 76.8906V75.3125H222.756C222.642 75.3125 222.584 75.2604 222.584 75.1562V71.5781C222.584 71.474 222.642 71.4219 222.756 71.4219H228.741C228.824 71.4219 228.866 71.474 228.866 71.5781V76.8906C228.866 78.0885 228.584 79.1719 228.022 80.1406C227.449 81.1094 226.694 81.8802 225.756 82.4531C224.819 83.026 223.761 83.3125 222.584 83.3125ZM236.216 83H233.012C232.846 83 232.762 82.9271 232.762 82.7812L232.731 60.9844C232.731 60.8177 232.815 60.7344 232.981 60.7344H235.872L241.278 73.3438L241.122 60.9844C241.122 60.8177 241.216 60.7344 241.403 60.7344H244.575C244.7 60.7344 244.762 60.8177 244.762 60.9844L244.794 82.8125C244.794 82.9375 244.742 83 244.637 83H241.825L236.278 71.2188L236.512 82.75C236.512 82.9167 236.414 83 236.216 83Z" fill="#E4E4E4"/>
</svg>
