<svg width="226" height="105" viewBox="0 0 226 105" fill="none" xmlns="http://www.w3.org/2000/svg">
<path d="M18.555 5.00524C18.7476 2.25055 21.1369 0.173581 23.8916 0.366208L211.434 13.4804C214.188 13.6731 216.265 16.0623 216.073 18.817L210.411 99.789C210.218 102.544 207.829 104.621 205.074 104.428L17.5319 91.3138C14.7772 91.1212 12.7002 88.7319 12.8929 85.9772L18.555 5.00524Z" fill="#CCFF99"/>
<path d="M58.9762 46.9851L53.2537 46.6162C53.1497 46.609 53.1014 46.5534 53.1087 46.4495L54.7046 24.523C54.7104 24.4399 54.7549 24.4012 54.838 24.407L60.81 24.7933C61.9968 24.845 63.0482 25.19 63.9642 25.8283C64.8906 26.4674 65.6055 27.2954 66.1087 28.3121C66.623 29.3192 66.8391 30.4098 66.757 31.5841L66.1161 40.7492C66.0304 41.9754 65.6558 43.0769 64.9922 44.0538C64.3191 45.0196 63.4626 45.769 62.4229 46.302C61.3839 46.8245 60.235 47.0522 58.9762 46.9851ZM60.5429 28.6121L58.3118 28.4874L57.2692 42.9499L59.2487 43.0883C60.0385 43.1436 60.7228 42.9147 61.3016 42.4017C61.8805 41.8888 62.1968 41.2478 62.2506 40.4789L62.8936 31.2826C62.9409 30.6071 62.7325 30.0026 62.2686 29.4689C61.8055 28.9249 61.2302 28.6393 60.5429 28.6121ZM80.1941 48.5001L69.8756 47.7785C69.7924 47.7727 69.7545 47.7179 69.7618 47.614L71.3265 25.6853C71.3323 25.6022 71.3768 25.5635 71.4599 25.5693L81.7161 26.2865C81.7992 26.2923 81.8372 26.3472 81.8299 26.4511L81.5803 30.0205C81.5745 30.1037 81.53 30.1423 81.4469 30.1365L74.9004 29.6787L74.5516 34.6665L81.0981 35.1243C81.1813 35.1301 81.2199 35.1746 81.2141 35.2577L80.9924 38.8761C80.9866 38.9592 80.9421 38.9979 80.859 38.9921L74.2813 38.5321L73.8911 44.1122L80.4688 44.5722C80.5519 44.578 80.5899 44.6329 80.5826 44.7368L80.3275 48.3841C80.3217 48.4672 80.2773 48.5059 80.1941 48.5001ZM90.1542 49.5098C89.0215 49.4306 87.9976 49.0666 87.0823 48.4179C86.1773 47.7698 85.4729 46.9427 84.969 45.9363C84.4761 44.9203 84.2704 43.8304 84.3518 42.6665L84.4543 41.2014C84.4622 41.0871 84.5182 41.0335 84.6221 41.0408L88.2071 41.2915C88.2902 41.2973 88.3278 41.3574 88.3198 41.4717L88.2174 42.9368C88.1687 43.6331 88.3603 44.2521 88.7923 44.794C89.2251 45.3255 89.7688 45.6141 90.4234 45.6599C91.0885 45.7064 91.6726 45.4914 92.1758 45.0149C92.6797 44.528 92.9553 43.9469 93.0026 43.2715C93.0571 42.4921 92.5955 41.7759 91.6178 41.1227C91.4588 41.0072 91.2493 40.8673 90.9893 40.7029C90.7404 40.5288 90.4411 40.3304 90.0912 40.1075C89.7413 39.8847 89.4014 39.6677 89.0716 39.4567C88.7425 39.2353 88.423 39.025 88.1133 38.8258C86.9974 38.0586 86.1897 37.1406 85.6901 36.0719C85.2016 34.9936 85.0024 33.8101 85.0925 32.5216C85.1754 31.337 85.5412 30.287 86.1899 29.3717C86.838 28.4668 87.6488 27.7717 88.6226 27.2864C89.6074 26.7913 90.6506 26.5824 91.7521 26.6594C92.8847 26.7386 93.9042 27.0918 94.8106 27.7191C95.7162 28.3567 96.4166 29.168 96.9116 30.1528C97.417 31.1384 97.6286 32.2183 97.5465 33.3925L97.3634 36.0111C97.3576 36.0942 97.3131 36.1329 97.23 36.1271L93.645 35.8764C93.5618 35.8706 93.5232 35.8261 93.529 35.743L93.6809 33.1222C93.7333 32.374 93.542 31.7498 93.107 31.2495C92.6721 30.7491 92.1325 30.4765 91.4883 30.4314C90.8336 30.3856 90.2551 30.5958 89.7526 31.0619C89.2501 31.528 88.9749 32.1039 88.9269 32.7897C88.8782 33.486 88.983 34.078 89.2413 34.566C89.5099 35.0547 90.0242 35.5396 90.7842 36.0209C90.8644 36.0683 91.0494 36.1857 91.3391 36.373C91.6288 36.5603 91.9483 36.7706 92.2974 37.0039C92.6577 37.2275 92.9827 37.4329 93.2724 37.6203C93.5629 37.7972 93.7382 37.9034 93.7983 37.939C94.8168 38.6054 95.6025 39.3913 96.1552 40.2966C96.7184 41.2027 96.956 42.2844 96.8681 43.5418C96.7831 44.7575 96.4262 45.829 95.7975 46.7562C95.1584 47.6826 94.3465 48.3933 93.3616 48.8883C92.3768 49.3833 91.3076 49.5905 90.1542 49.5098ZM104.023 50.1664L100.407 49.9135C100.303 49.9063 100.255 49.8507 100.262 49.7468L101.827 27.8181C101.833 27.735 101.877 27.6963 101.96 27.7021L105.545 27.9528C105.629 27.9586 105.667 28.0031 105.661 28.0862L104.159 50.0192C104.152 50.1232 104.107 50.1722 104.023 50.1664ZM114.373 51.2034C113.22 51.1227 112.201 50.7643 111.316 50.1281C110.42 49.4912 109.721 48.6696 109.217 47.6632C108.723 46.6576 108.518 45.5573 108.602 44.3623L109.309 34.2463C109.391 33.0825 109.751 32.0426 110.389 31.1266C111.018 30.1994 111.825 29.4831 112.81 28.9777C113.797 28.4619 114.851 28.2433 115.973 28.3218C117.147 28.4039 118.188 28.7586 119.094 29.3858C120 30.0234 120.695 30.8395 121.178 31.834C121.673 32.8293 121.878 33.9244 121.794 35.1194L121.692 36.5846C121.686 36.6677 121.631 36.7056 121.527 36.6984L117.942 36.4477C117.859 36.4419 117.821 36.3974 117.826 36.3143L117.911 35.0985C117.968 34.288 117.786 33.6017 117.366 33.0398C116.946 32.4779 116.393 32.1729 115.707 32.125C115.094 32.0821 114.531 32.2985 114.017 32.7743C113.504 33.25 113.223 33.8308 113.175 34.5167L112.468 44.6326C112.419 45.3288 112.611 45.9478 113.043 46.4897C113.475 47.0212 114.009 47.3091 114.642 47.3534C115.328 47.4014 115.917 47.1971 116.408 46.7407C116.9 46.2739 117.171 45.682 117.222 44.965L117.332 43.3907L115.103 43.2349C114.988 43.2269 114.935 43.1709 114.942 43.067L115.192 39.4976C115.199 39.3937 115.26 39.3457 115.374 39.3537L121.344 39.7712C121.427 39.777 121.465 39.8318 121.458 39.9358L121.087 45.2353C121.004 46.4303 120.647 47.4914 120.019 48.4185C119.38 49.345 118.572 50.0612 117.597 50.5674C116.622 51.0735 115.547 51.2855 114.373 51.2034ZM127.993 51.8425L124.798 51.6191C124.631 51.6075 124.553 51.5289 124.564 51.3834L126.053 29.6375C126.065 29.4712 126.153 29.3939 126.32 29.4055L129.203 29.6071L133.717 42.5629L134.423 30.2228C134.435 30.0565 134.534 29.9799 134.721 29.993L137.885 30.2142C138.01 30.223 138.066 30.3105 138.055 30.4767L136.563 52.2539C136.555 52.3785 136.498 52.4373 136.394 52.43L133.589 52.2338L128.877 40.0943L128.307 51.6138C128.295 51.7801 128.19 51.8563 127.993 51.8425Z" fill="black"/>
<path d="M83.6195 77.432L80.0033 77.1792C79.9202 77.1733 79.8822 77.1185 79.8895 77.0146L81.4854 55.0881C81.4912 55.005 81.5357 54.9663 81.6188 54.9721L85.5156 55.2446C85.5987 55.2504 85.6685 55.2971 85.725 55.3846L88.3455 59.7969L91.539 55.7911C91.6071 55.7124 91.688 55.6762 91.7815 55.6828L95.6938 55.9564C95.7873 55.9629 95.8312 56.0077 95.8254 56.0909L94.3542 78.026C94.3469 78.13 94.3017 78.179 94.2186 78.1732L90.6024 77.9203C90.5193 77.9145 90.4814 77.8596 90.4886 77.7557L91.5964 61.4652L87.9052 66.094L84.9252 60.9987L83.7551 77.2849C83.7478 77.3888 83.7026 77.4378 83.6195 77.432ZM104.506 79.2058C103.373 79.1266 102.349 78.7626 101.434 78.1139C100.529 77.4658 99.8195 76.6383 99.3052 75.6312C98.802 74.6145 98.591 73.5242 98.6724 72.3603L99.411 62.2466C99.4938 61.062 99.854 60.0169 100.492 59.1112C101.12 58.1945 101.932 57.4837 102.928 56.9791C103.924 56.464 104.984 56.2457 106.106 56.3242C107.27 56.4056 108.294 56.7644 109.179 57.4006C110.074 58.0375 110.769 58.8587 111.262 59.8644C111.767 60.8603 111.978 61.9454 111.896 63.1196L111.22 73.2377C111.139 74.4016 110.783 75.4471 110.155 76.3742C109.515 77.311 108.702 78.0373 107.716 78.5531C106.729 79.0689 105.659 79.2865 104.506 79.2058ZM104.775 75.3558C105.419 75.4009 105.999 75.1804 106.513 74.6942C107.028 74.1977 107.309 73.6221 107.354 72.9674L108.031 62.8493C108.08 62.1427 107.898 61.5296 107.486 61.01C107.073 60.4903 106.524 60.2065 105.838 60.1586C105.183 60.1128 104.605 60.3126 104.104 60.7579C103.603 61.2032 103.327 61.7895 103.277 62.5169L102.569 72.6328C102.52 73.329 102.712 73.9481 103.144 74.49C103.577 75.0214 104.121 75.3101 104.775 75.3558ZM120.66 80.3354C119.507 80.2548 118.472 79.8901 117.557 79.2413C116.652 78.5933 115.953 77.7612 115.461 76.7452C114.979 75.7195 114.78 74.604 114.864 73.3986L115.592 63.4407C115.675 62.2561 116.02 61.2047 116.627 60.2865C117.235 59.3579 118.032 58.6357 119.018 58.1199C120.016 57.5945 121.097 57.3724 122.26 57.4538C123.445 57.5366 124.48 57.8962 125.365 58.5324C126.26 59.1693 126.949 59.9954 127.431 61.0107C127.925 62.0163 128.13 63.1166 128.046 64.3116L127.944 65.7768C127.938 65.8599 127.893 65.8986 127.81 65.8928L124.225 65.6421C124.142 65.6363 124.103 65.5918 124.109 65.5087L124.212 64.0435C124.261 63.3369 124.075 62.713 123.653 62.1719C123.232 61.6307 122.678 61.3362 121.992 61.2882C121.234 61.2352 120.634 61.4542 120.192 61.9455C119.75 62.4367 119.506 63.0252 119.458 63.7111L118.761 73.6711C118.707 74.4505 118.891 75.1055 119.313 75.6363C119.736 76.1566 120.275 76.4397 120.93 76.4855C121.615 76.5334 122.206 76.3032 122.701 75.7948C123.196 75.2761 123.468 74.679 123.515 74.0035L123.619 72.5228C123.625 72.4396 123.669 72.401 123.752 72.4068L127.368 72.6597C127.451 72.6655 127.49 72.71 127.484 72.7931L127.381 74.2738C127.297 75.4688 126.94 76.5403 126.31 77.4882C125.67 78.4251 124.862 79.1569 123.885 79.6838C122.91 80.2003 121.835 80.4175 120.66 80.3354ZM134.607 80.9975L130.991 80.7446C130.908 80.7388 130.87 80.6839 130.877 80.58L132.471 58.6847C132.478 58.5808 132.524 58.5317 132.607 58.5376L136.192 58.7883C136.275 58.7941 136.313 58.8489 136.306 58.9528L135.777 66.5125L141.311 59.2715C141.4 59.1942 141.481 59.1581 141.554 59.1632L145.217 59.4193C145.31 59.4259 145.328 59.4689 145.27 59.5484L139.137 67.9692L144.405 81.5572C144.451 81.644 144.396 81.6819 144.24 81.671L140.343 81.3986C140.24 81.3913 140.18 81.3454 140.165 81.2608L136.504 71.5755L135.275 73.2439L134.743 80.8503C134.736 80.9542 134.691 81.0033 134.607 80.9975ZM153.281 82.6165C152.158 82.538 151.14 82.1744 150.224 81.5256C149.309 80.8769 148.6 80.0441 148.096 79.0274C147.604 78.0009 147.399 76.9058 147.48 75.742L148.659 59.7853C148.665 59.7022 148.709 59.6635 148.792 59.6694L152.377 59.92C152.46 59.9259 152.499 59.9703 152.493 60.0535L151.377 76.0145C151.327 76.7315 151.513 77.3606 151.934 77.9017C152.357 78.4325 152.895 78.7207 153.55 78.7665C154.236 78.8145 154.825 78.605 155.317 78.1382C155.81 77.661 156.081 77.0639 156.131 76.3469L157.247 60.3859C157.253 60.3028 157.298 60.2641 157.381 60.2699L160.966 60.5206C161.049 60.5264 161.087 60.5709 161.082 60.654L160.028 76.6194C159.946 77.7936 159.59 78.8547 158.96 79.8026C158.32 80.7395 157.507 81.4658 156.52 81.9815C155.535 82.4869 154.455 82.6986 153.281 82.6165ZM167.446 83.2938L163.861 83.0431C163.757 83.0358 163.709 82.9802 163.716 82.8763L165.312 60.9498C165.318 60.8667 165.362 60.828 165.445 60.8339L171.587 61.2633C173.54 61.3999 175.042 62.1053 176.091 63.3795C177.151 64.644 177.609 66.2999 177.466 68.3469C177.362 69.8433 176.974 71.1267 176.304 72.1971C175.624 73.2565 174.786 74.0541 173.787 74.5899C172.789 75.1257 171.729 75.3544 170.607 75.276L168.175 75.1059L167.613 83.1488C167.606 83.2527 167.55 83.301 167.446 83.2938ZM171.322 65.0509L168.888 64.9121L168.446 71.2404L170.877 71.4104C171.553 71.4576 172.162 71.1765 172.706 70.5672C173.251 69.9474 173.559 69.1179 173.632 68.0788C173.69 67.2475 173.514 66.5513 173.104 65.9901C172.695 65.4185 172.101 65.1054 171.322 65.0509Z" fill="black"/>
</svg>
