<svg width="473" height="244" viewBox="0 0 473 244" fill="none" xmlns="http://www.w3.org/2000/svg">
<rect x="111.478" y="31.9709" width="298" height="66.9999" rx="10" transform="rotate(17.9601 111.478 31.9709)" fill="#1B4846"/>
<path d="M141.618 137.248C138.788 140.235 133.769 138.758 133.053 134.728L121.732 71.0462C121.082 67.3885 124.533 64.311 128.106 65.3624L184.15 81.851C187.723 82.9023 188.909 87.3442 186.34 90.0548L141.618 137.248Z" fill="#1B4846"/>
<path d="M114.651 74.4143C113.895 74.1692 113.265 73.7543 112.762 73.1696C112.266 72.5872 111.938 71.9161 111.777 71.1565C111.626 70.3923 111.679 69.615 111.935 68.8248L114.072 62.3016C114.324 61.525 114.728 60.8808 115.286 60.3688C115.845 59.8501 116.497 59.5005 117.24 59.3199C117.993 59.1348 118.751 59.1658 119.514 59.4132C120.29 59.6649 120.921 60.0764 121.406 60.6476C121.898 61.2211 122.22 61.8865 122.374 62.6439C122.536 63.3967 122.491 64.1648 122.237 64.9483L121.925 65.9088C121.908 65.9633 121.871 65.9817 121.817 65.9641L119.467 65.2022C119.412 65.1845 119.394 65.1485 119.411 65.094L119.723 64.1334C119.873 63.6702 119.852 63.223 119.661 62.7921C119.469 62.3611 119.149 62.0727 118.699 61.927C118.202 61.7658 117.765 61.8124 117.389 62.0669C117.013 62.3214 116.752 62.6735 116.606 63.1231L114.489 69.6529C114.324 70.1638 114.338 70.6314 114.532 71.0555C114.728 71.4729 115.04 71.7511 115.469 71.8903C115.919 72.036 116.351 71.9803 116.766 71.7232C117.182 71.4593 117.463 71.106 117.606 70.6632L117.921 69.6924C117.939 69.6379 117.975 69.6195 118.029 69.6371L120.4 70.4056C120.454 70.4233 120.473 70.4594 120.455 70.5139L120.14 71.4847C119.886 72.2681 119.471 72.9238 118.893 73.4517C118.311 73.9706 117.65 74.3249 116.911 74.5144C116.174 74.6972 115.421 74.6638 114.651 74.4143ZM123.847 77.1692L121.476 76.4007C121.422 76.3831 121.405 76.3402 121.428 76.272L126.129 61.9075C126.147 61.853 126.183 61.8346 126.237 61.8523L130.468 63.2236C131.224 63.4687 131.859 63.8779 132.373 64.4511C132.888 65.0244 133.232 65.6817 133.406 66.4231C133.586 67.1667 133.549 67.9302 133.295 68.7136C133.13 69.2246 132.901 69.6624 132.61 70.0272C132.319 70.392 132.021 70.6832 131.717 70.9009C131.42 71.1207 131.164 71.2712 130.95 71.3523C131.434 72.4353 131.493 73.5423 131.127 74.6731L129.756 78.9716C129.734 79.0398 129.689 79.0628 129.62 79.0407L127.25 78.2722C127.195 78.2546 127.175 78.2253 127.188 78.1844L128.592 73.8517C128.756 73.3475 128.72 72.8541 128.485 72.3714C128.25 71.8887 127.874 71.5635 127.356 71.3956L125.976 70.9485L123.962 77.0935C123.94 77.1616 123.901 77.1869 123.847 77.1692ZM129.656 65.7272L127.858 65.1442L126.791 68.4346L128.59 69.0176C129.019 69.1567 129.452 69.1203 129.89 68.9083C130.334 68.6986 130.631 68.362 130.782 67.8988C130.925 67.456 130.885 67.0215 130.662 66.5953C130.441 66.1623 130.106 65.8729 129.656 65.7272ZM136.344 81.4458C135.601 81.2051 134.978 80.7925 134.475 80.2078C133.979 79.6253 133.643 78.9555 133.466 78.1983C133.299 77.4364 133.339 76.674 133.587 75.911L135.757 69.2857C136.009 68.5091 136.422 67.8715 136.998 67.373C137.569 66.8655 138.229 66.526 138.977 66.3545C139.727 66.1762 140.47 66.2062 141.206 66.4447C141.969 66.692 142.593 67.1013 143.078 67.6725C143.57 68.246 143.897 68.9091 144.059 69.6619C144.231 70.4101 144.192 71.1691 143.942 71.9389L141.813 78.5775C141.566 79.3405 141.155 79.9792 140.582 80.4935C140 81.0124 139.337 81.3621 138.593 81.5427C137.85 81.7232 137.1 81.6909 136.344 81.4458ZM137.162 78.9218C137.584 79.0587 138.007 79.0076 138.431 78.7686C138.857 78.5227 139.14 78.1852 139.279 77.756L141.408 71.1175C141.558 70.6542 141.539 70.215 141.349 69.7999C141.16 69.3847 140.841 69.1043 140.391 68.9585C139.962 68.8194 139.543 68.8569 139.135 69.0709C138.727 69.2849 138.446 69.6303 138.291 70.1072L136.141 76.7391C135.994 77.1956 136.019 77.6404 136.217 78.0736C136.418 78.4999 136.733 78.7827 137.162 78.9218ZM146.638 84.7827C145.895 84.542 145.273 84.1294 144.769 83.5447C144.273 82.9622 143.94 82.2935 143.771 81.5385C143.611 80.7789 143.654 80.0176 143.902 79.2546L144.213 78.294C144.237 78.2191 144.283 78.1926 144.352 78.2147L146.702 78.9766C146.756 78.9942 146.772 79.0405 146.747 79.1155L146.436 80.076C146.288 80.5325 146.313 80.9773 146.511 81.4105C146.712 81.8368 147.027 82.1196 147.456 82.2587C147.892 82.4 148.317 82.3535 148.732 82.119C149.149 81.8778 149.429 81.5358 149.573 81.0929C149.739 80.582 149.549 80.0276 149.005 79.4297C148.919 79.3262 148.802 79.1981 148.656 79.0453C148.519 78.8879 148.352 78.7059 148.155 78.4991C147.959 78.2924 147.768 78.0913 147.583 77.8958C147.4 77.6935 147.222 77.5002 147.048 77.3159C146.431 76.619 146.044 75.8726 145.888 75.0767C145.741 74.2762 145.805 73.4535 146.078 72.6088C146.33 71.8322 146.748 71.1923 147.333 70.6892C147.915 70.193 148.572 69.8637 149.302 69.7013C150.041 69.5344 150.772 69.568 151.494 69.8021C152.236 70.0428 152.858 70.4475 153.359 71.0164C153.857 71.592 154.19 72.2494 154.357 72.9886C154.531 73.73 154.493 74.4856 154.243 75.2554L153.687 76.9721C153.669 77.0266 153.633 77.0451 153.578 77.0274L151.228 76.2655C151.174 76.2479 151.155 76.2118 151.173 76.1573L151.709 74.4339C151.868 73.9434 151.844 73.4952 151.637 73.0893C151.429 72.6833 151.115 72.4119 150.692 72.275C150.263 72.1359 149.842 72.1801 149.43 72.4078C149.017 72.6354 148.738 72.974 148.592 73.4236C148.444 73.8801 148.416 74.2925 148.507 74.6609C148.606 75.0315 148.868 75.4404 149.295 75.8875C149.341 75.9324 149.445 76.0414 149.607 76.2144C149.77 76.3875 149.948 76.5808 150.142 76.7943C150.345 77.0032 150.528 77.1942 150.69 77.3673C150.855 77.5335 150.954 77.6334 150.988 77.6671C151.557 78.2807 151.951 78.9353 152.17 79.6311C152.395 80.329 152.374 81.0901 152.107 81.9144C151.849 82.7115 151.433 83.3672 150.86 83.8815C150.28 84.3936 149.62 84.7331 148.881 84.9C148.142 85.067 147.394 85.0279 146.638 84.7827ZM156.799 88.0766C156.057 87.8359 155.434 87.4232 154.931 86.8385C154.435 86.2561 154.102 85.5874 153.933 84.8323C153.772 84.0727 153.816 83.3114 154.063 82.5484L154.374 81.5879C154.399 81.5129 154.445 81.4865 154.513 81.5086L156.863 82.2704C156.918 82.2881 156.933 82.3344 156.909 82.4093L156.597 83.3699C156.449 83.8263 156.475 84.2711 156.673 84.7043C156.874 85.1307 157.188 85.4134 157.618 85.5526C158.054 85.6939 158.479 85.6473 158.894 85.4129C159.311 85.1716 159.591 84.8296 159.735 84.3868C159.9 83.8759 159.711 83.3214 159.167 82.7235C159.08 82.6201 158.964 82.4919 158.817 82.3392C158.68 82.1818 158.513 81.9997 158.317 81.793C158.12 81.5862 157.93 81.3851 157.745 81.1896C157.562 80.9873 157.383 80.794 157.21 80.6098C156.592 79.9128 156.206 79.1664 156.05 78.3705C155.903 77.57 155.966 76.7474 156.24 75.9026C156.492 75.126 156.91 74.4862 157.495 73.9831C158.077 73.4868 158.733 73.1575 159.463 72.9952C160.203 72.8283 160.933 72.8618 161.655 73.0959C162.398 73.3366 163.02 73.7414 163.52 74.3102C164.019 74.8858 164.351 75.5433 164.518 76.2824C164.692 77.0238 164.654 77.7794 164.405 78.5492L163.848 80.266C163.831 80.3205 163.794 80.3389 163.74 80.3212L161.39 79.5594C161.335 79.5417 161.317 79.5056 161.334 79.4511L161.87 77.7278C162.029 77.2373 162.005 76.7891 161.798 76.3831C161.591 75.9772 161.276 75.7058 160.854 75.5688C160.425 75.4297 160.004 75.474 159.591 75.7016C159.179 75.9292 158.899 76.2679 158.754 76.7175C158.606 77.1739 158.578 77.5863 158.669 77.9547C158.767 78.3253 159.03 78.7342 159.457 79.1813C159.503 79.2263 159.607 79.3352 159.769 79.5083C159.931 79.6813 160.109 79.8746 160.304 80.0881C160.507 80.2971 160.69 80.4881 160.852 80.6611C161.016 80.8273 161.116 80.9273 161.15 80.961C161.719 81.5745 162.113 82.2292 162.331 82.9249C162.557 83.6228 162.536 84.384 162.269 85.2083C162.01 86.0053 161.595 86.661 161.021 87.1753C160.441 87.6874 159.782 88.027 159.043 88.1939C158.303 88.3608 157.556 88.3217 156.799 88.0766ZM169.652 85.3319L165.606 84.0202C165.538 83.9981 165.512 83.9598 165.53 83.9053L166.269 81.6265C166.286 81.572 166.329 81.5558 166.397 81.5779L170.444 82.8896C170.512 82.9117 170.537 82.95 170.52 83.0045L169.781 85.2832C169.763 85.3377 169.72 85.3539 169.652 85.3319ZM174.685 93.6484L170.935 92.4327C170.88 92.415 170.864 92.3721 170.886 92.304L175.588 77.9395C175.605 77.885 175.641 77.8666 175.696 77.8843L179.722 79.1893C180.505 79.4433 181.156 79.8648 181.672 80.4539C182.175 81.0385 182.505 81.7062 182.66 82.4568C182.818 83.2006 182.778 83.9403 182.54 84.6761C182.345 85.2756 182.028 85.79 181.588 86.2195C181.147 86.6489 180.688 86.9629 180.209 87.1617C180.481 87.6939 180.643 88.2621 180.696 88.8664C180.748 89.4706 180.68 90.0657 180.49 90.6516C180.227 91.4623 179.793 92.1385 179.188 92.6802C178.577 93.2198 177.876 93.5834 177.084 93.7711C176.296 93.9521 175.496 93.9111 174.685 93.6484ZM178.917 81.6725L177.323 81.1558L176.256 84.4462L177.851 84.9629C178.334 85.1197 178.781 85.0764 179.191 84.8329C179.604 84.5826 179.875 84.2565 180.005 83.8546C180.149 83.4118 180.114 82.975 179.899 82.5442C179.687 82.1066 179.36 81.816 178.917 81.6725ZM176.712 87.3945L175.435 86.9804L174.215 90.673L175.513 91.0937C176.017 91.2571 176.51 91.2134 176.99 90.9625C177.47 90.7117 177.792 90.3342 177.955 89.8301C178.119 89.326 178.079 88.8349 177.835 88.3568C177.59 87.8787 177.216 87.5579 176.712 87.3945ZM184.06 96.6872L181.689 95.9187C181.635 95.901 181.618 95.8581 181.64 95.79L186.342 81.4255C186.359 81.371 186.396 81.3526 186.45 81.3702L190.681 82.7416C191.437 82.9867 192.072 83.3958 192.586 83.9691C193.101 84.5423 193.445 85.1997 193.618 85.941C193.799 86.6846 193.762 87.4482 193.508 88.2316C193.343 88.7425 193.114 89.1804 192.823 89.5452C192.531 89.9099 192.234 90.2012 191.93 90.4188C191.633 90.6387 191.377 90.7892 191.162 90.8702C191.647 91.9533 191.706 93.0602 191.339 94.1911L189.969 98.4896C189.947 98.5577 189.902 98.5807 189.833 98.5587L187.463 97.7902C187.408 97.7725 187.388 97.7432 187.401 97.7024L188.805 93.3696C188.969 92.8655 188.933 92.3721 188.698 91.8894C188.463 91.4067 188.086 91.0814 187.569 90.9136L186.189 90.4664L184.175 96.6115C184.153 96.6796 184.114 96.7048 184.06 96.6872ZM189.869 85.2451L188.071 84.6622L187.004 87.9526L188.803 88.5356C189.232 88.6747 189.665 88.6383 190.103 88.4263C190.547 88.2165 190.844 87.88 190.995 87.4167C191.138 86.9739 191.098 86.5394 190.875 86.1133C190.654 85.6803 190.319 85.3909 189.869 85.2451ZM196.556 100.964C195.814 100.723 195.191 100.31 194.688 99.7257C194.192 99.1433 193.856 98.4735 193.679 97.7162C193.512 96.9544 193.552 96.192 193.8 95.429L195.97 88.8037C196.222 88.027 196.635 87.3895 197.211 86.891C197.782 86.3835 198.442 86.044 199.19 85.8724C199.94 85.6941 200.683 85.7242 201.419 85.9627C202.182 86.21 202.806 86.6193 203.291 87.1905C203.783 87.7639 204.11 88.427 204.272 89.1799C204.444 89.9281 204.405 90.6871 204.155 91.4569L202.026 98.0955C201.778 98.8585 201.368 99.4971 200.795 100.011C200.213 100.53 199.55 100.88 198.806 101.061C198.063 101.241 197.313 101.209 196.556 100.964ZM197.375 98.4398C197.797 98.5767 198.22 98.5256 198.644 98.2866C199.07 98.0407 199.352 97.7032 199.492 97.274L201.621 90.6354C201.771 90.1722 201.752 89.733 201.562 89.3178C201.373 88.9027 201.054 88.6222 200.604 88.4765C200.175 88.3374 199.756 88.3748 199.348 88.5888C198.94 88.8028 198.659 89.1483 198.504 89.6251L196.354 96.2571C196.206 96.7135 196.232 97.1583 196.43 97.5915C196.631 98.0179 196.945 98.3006 197.375 98.4398ZM207.827 104.391L205.292 103.57C205.231 103.55 205.208 103.505 205.223 103.434L207.411 88.255C207.415 88.1961 207.444 88.1754 207.499 88.1931L209.849 88.9549C209.903 88.9726 209.929 89.0109 209.925 89.0698L208.199 98.9561L212.643 89.9509C212.674 89.9008 212.724 89.8868 212.792 89.9089L214.682 90.5217C214.737 90.5394 214.762 90.5777 214.758 90.6366L213.053 100.529L217.476 91.5177C217.508 91.4676 217.55 91.4514 217.605 91.4691L219.935 92.2243C220.003 92.2464 220.021 92.2824 219.99 92.3325L212.836 105.902C212.821 105.927 212.792 105.944 212.752 105.954L212.701 105.971L210.167 105.15C210.126 105.136 210.103 105.091 210.098 105.014L211.459 97.1558L207.962 104.322C207.933 104.388 207.888 104.411 207.827 104.391ZM221.059 108.906C220.316 108.666 219.694 108.253 219.19 107.668C218.694 107.086 218.361 106.417 218.192 105.662C218.032 104.902 218.075 104.141 218.323 103.378L218.634 102.418C218.658 102.343 218.705 102.316 218.773 102.338L221.123 103.1C221.177 103.118 221.193 103.164 221.168 103.239L220.857 104.2C220.709 104.656 220.734 105.101 220.932 105.534C221.133 105.96 221.448 106.243 221.877 106.382C222.313 106.524 222.739 106.477 223.153 106.243C223.57 106.001 223.851 105.659 223.994 105.216C224.16 104.706 223.97 104.151 223.427 103.553C223.34 103.45 223.223 103.322 223.077 103.169C222.94 103.011 222.773 102.829 222.576 102.623C222.38 102.416 222.189 102.215 222.004 102.019C221.821 101.817 221.643 101.624 221.469 101.439C220.852 100.742 220.465 99.9961 220.309 99.2002C220.162 98.3997 220.226 97.577 220.499 96.7323C220.751 95.9557 221.169 95.3158 221.754 94.8127C222.336 94.3165 222.993 93.9872 223.723 93.8248C224.462 93.6579 225.193 93.6915 225.915 93.9256C226.657 94.1663 227.279 94.571 227.78 95.1399C228.278 95.7155 228.611 96.3729 228.778 97.1121C228.952 97.8535 228.914 98.6091 228.664 99.3789L228.108 101.096C228.09 101.15 228.054 101.169 227.999 101.151L225.649 100.389C225.595 100.371 225.576 100.335 225.594 100.281L226.13 98.5574C226.289 98.0669 226.265 97.6187 226.058 97.2128C225.85 96.8068 225.536 96.5354 225.113 96.3985C224.684 96.2594 224.263 96.3036 223.851 96.5313C223.438 96.7589 223.159 97.0975 223.013 97.5471C222.865 98.0036 222.837 98.416 222.928 98.7844C223.027 99.155 223.289 99.5639 223.716 100.011C223.762 100.056 223.866 100.165 224.028 100.338C224.191 100.511 224.369 100.704 224.563 100.918C224.766 101.127 224.949 101.318 225.111 101.491C225.276 101.657 225.375 101.757 225.409 101.791C225.978 102.404 226.372 103.059 226.591 103.755C226.816 104.452 226.795 105.214 226.528 106.038C226.27 106.835 225.854 107.491 225.281 108.005C224.701 108.517 224.041 108.857 223.302 109.024C222.563 109.19 221.815 109.151 221.059 108.906ZM234.577 113.062L227.812 110.869C227.758 110.852 227.742 110.809 227.764 110.741L232.445 96.3697C232.462 96.3152 232.498 96.2968 232.553 96.3144L239.277 98.494C239.331 98.5116 239.348 98.5545 239.325 98.6227L238.567 100.963C238.549 101.017 238.513 101.036 238.459 101.018L234.167 99.6268L233.107 102.897L237.399 104.288C237.453 104.306 237.472 104.342 237.454 104.396L236.706 106.774C236.688 106.828 236.652 106.847 236.598 106.829L232.285 105.431L231.1 109.089L235.412 110.487C235.466 110.505 235.483 110.548 235.46 110.616L234.685 113.007C234.668 113.062 234.632 113.08 234.577 113.062ZM240.018 114.826L237.647 114.057C237.592 114.04 237.576 113.997 237.598 113.929L242.3 99.5641C242.317 99.5096 242.353 99.4912 242.408 99.5089L246.638 100.88C247.395 101.125 248.03 101.535 248.544 102.108C249.059 102.681 249.403 103.338 249.576 104.08C249.757 104.823 249.72 105.587 249.466 106.37C249.301 106.881 249.072 107.319 248.781 107.684C248.489 108.049 248.192 108.34 247.888 108.557C247.591 108.777 247.335 108.928 247.12 109.009C247.605 110.092 247.664 111.199 247.297 112.33L245.927 116.628C245.904 116.696 245.859 116.719 245.791 116.697L243.42 115.929C243.366 115.911 243.345 115.882 243.359 115.841L244.763 111.508C244.926 111.004 244.891 110.511 244.656 110.028C244.421 109.545 244.044 109.22 243.527 109.052L242.147 108.605L240.132 114.75C240.11 114.818 240.072 114.843 240.018 114.826ZM245.827 103.384L244.028 102.801L242.962 106.091L244.76 106.674C245.19 106.813 245.623 106.777 246.061 106.565C246.505 106.355 246.802 106.019 246.952 105.555C247.096 105.113 247.056 104.678 246.833 104.252C246.612 103.819 246.277 103.53 245.827 103.384ZM258.977 121.197C258.22 120.952 257.591 120.537 257.088 119.953C256.591 119.37 256.263 118.699 256.103 117.939C255.952 117.175 256.004 116.398 256.26 115.608L258.397 109.085C258.649 108.308 259.054 107.664 259.611 107.152C260.171 106.633 260.822 106.283 261.566 106.103C262.318 105.918 263.076 105.949 263.839 106.196C264.616 106.448 265.247 106.859 265.731 107.431C266.223 108.004 266.546 108.669 266.699 109.427C266.862 110.18 266.816 110.948 266.562 111.731L266.251 112.692C266.233 112.746 266.197 112.765 266.142 112.747L263.792 111.985C263.738 111.967 263.719 111.931 263.737 111.877L264.048 110.916C264.198 110.453 264.178 110.006 263.986 109.575C263.795 109.144 263.474 108.856 263.024 108.71C262.527 108.549 262.09 108.595 261.714 108.85C261.338 109.104 261.077 109.456 260.931 109.906L258.815 116.436C258.649 116.947 258.663 117.414 258.857 117.838C259.053 118.256 259.366 118.534 259.795 118.673C260.244 118.819 260.676 118.763 261.091 118.506C261.508 118.242 261.788 117.889 261.932 117.446L262.246 116.475C262.264 116.421 262.3 116.402 262.354 116.42L264.725 117.189C264.78 117.206 264.798 117.242 264.78 117.297L264.466 118.268C264.212 119.051 263.796 119.707 263.218 120.235C262.636 120.754 261.975 121.108 261.237 121.297C260.5 121.48 259.746 121.447 258.977 121.197ZM269.526 124.617C268.784 124.376 268.161 123.964 267.658 123.379C267.162 122.796 266.825 122.127 266.649 121.369C266.482 120.608 266.522 119.845 266.77 119.082L268.94 112.457C269.192 111.68 269.605 111.043 270.181 110.544C270.752 110.037 271.412 109.697 272.16 109.526C272.91 109.347 273.653 109.377 274.389 109.616C275.152 109.863 275.776 110.272 276.261 110.844C276.752 111.417 277.08 112.08 277.242 112.833C277.414 113.581 277.375 114.34 277.125 115.11L274.996 121.749C274.748 122.512 274.338 123.15 273.765 123.665C273.183 124.184 272.52 124.533 271.776 124.714C271.033 124.894 270.283 124.862 269.526 124.617ZM270.345 122.093C270.767 122.23 271.19 122.179 271.614 121.94C272.04 121.694 272.322 121.356 272.462 120.927L274.591 114.289C274.741 113.825 274.721 113.386 274.532 112.971C274.343 112.556 274.024 112.275 273.574 112.13C273.145 111.991 272.726 112.028 272.318 112.242C271.91 112.456 271.629 112.801 271.474 113.278L269.324 119.91C269.176 120.367 269.202 120.811 269.4 121.245C269.601 121.671 269.915 121.954 270.345 122.093ZM278.783 127.392L276.413 126.623C276.358 126.606 276.342 126.563 276.364 126.495L281.065 112.13C281.083 112.076 281.119 112.057 281.174 112.075L283.728 112.903C283.783 112.921 283.822 112.963 283.845 113.031L284.862 116.409L287.657 114.267C287.715 114.225 287.775 114.215 287.836 114.234L290.401 115.066C290.463 115.086 290.484 115.123 290.467 115.177L285.847 129.568C285.825 129.637 285.787 129.662 285.732 129.644L283.361 128.876C283.307 128.858 283.291 128.815 283.313 128.747L286.754 118.062L283.523 120.538L282.38 116.644L278.898 127.316C278.876 127.384 278.838 127.409 278.783 127.392ZM291.07 131.375L288.72 130.613C288.652 130.591 288.629 130.546 288.651 130.477L293.352 116.113C293.37 116.058 293.406 116.04 293.461 116.058L297.487 117.363C298.768 117.778 299.652 118.497 300.141 119.522C300.639 120.541 300.67 121.722 300.235 123.064C299.917 124.045 299.446 124.837 298.821 125.44C298.192 126.034 297.5 126.427 296.745 126.619C295.99 126.811 295.245 126.788 294.509 126.549L292.915 126.033L291.206 131.305C291.184 131.374 291.139 131.397 291.07 131.375ZM296.682 119.846L295.081 119.35L293.736 123.498L295.331 124.015C295.773 124.159 296.227 124.072 296.691 123.756C297.157 123.433 297.5 122.93 297.721 122.249C297.898 121.704 297.896 121.21 297.716 120.768C297.537 120.319 297.193 120.011 296.682 119.846ZM298.721 133.741L305.977 120.205C306.008 120.155 306.051 120.139 306.105 120.156L309.14 121.14C309.195 121.158 309.22 121.196 309.216 121.255L307.049 136.441C307.034 136.511 306.995 136.537 306.934 136.517L304.614 135.765C304.546 135.743 304.52 135.697 304.535 135.626L304.807 134.02L301.956 133.096L301.234 134.556C301.206 134.622 301.16 134.645 301.099 134.625L298.769 133.87C298.715 133.852 298.699 133.81 298.721 133.741ZM306.16 125.493L306.289 124.676L305.945 125.423L303.1 130.994L305.114 131.647L306.16 125.493ZM313.836 138.754L311.475 137.989C311.414 137.969 311.394 137.925 311.416 137.857L315.285 125.921L312.567 125.04C312.499 125.018 312.476 124.973 312.498 124.905L313.277 122.571C313.295 122.517 313.331 122.498 313.385 122.516L321.335 125.093C321.41 125.117 321.439 125.157 321.421 125.211L320.663 127.551C320.641 127.62 320.602 127.645 320.548 127.627L317.799 126.736L313.951 138.678C313.929 138.746 313.89 138.772 313.836 138.754ZM321.269 141.163L318.898 140.395C318.83 140.373 318.807 140.328 318.829 140.26L323.51 125.888C323.528 125.834 323.564 125.815 323.618 125.833L325.969 126.595C326.023 126.613 326.042 126.649 326.024 126.703L321.384 141.088C321.362 141.156 321.323 141.181 321.269 141.163ZM328.068 143.367L324.318 142.152C324.264 142.134 324.247 142.091 324.269 142.023L328.971 127.659C328.989 127.604 329.025 127.586 329.079 127.603L333.105 128.908C333.889 129.162 334.539 129.584 335.056 130.173C335.559 130.758 335.888 131.425 336.044 132.176C336.202 132.92 336.161 133.659 335.923 134.395C335.729 134.995 335.411 135.509 334.971 135.938C334.531 136.368 334.071 136.682 333.593 136.881C333.864 137.413 334.026 137.981 334.079 138.585C334.132 139.19 334.063 139.785 333.873 140.371C333.61 141.181 333.176 141.858 332.572 142.399C331.96 142.939 331.259 143.302 330.468 143.49C329.679 143.671 328.879 143.63 328.068 143.367ZM332.3 131.392L330.706 130.875L329.64 134.165L331.234 134.682C331.718 134.839 332.164 134.795 332.575 134.552C332.987 134.302 333.258 133.976 333.389 133.574C333.532 133.131 333.497 132.694 333.283 132.263C333.071 131.826 332.743 131.535 332.3 131.392ZM330.096 137.114L328.818 136.699L327.599 140.392L328.896 140.813C329.401 140.976 329.893 140.932 330.373 140.682C330.853 140.431 331.175 140.053 331.339 139.549C331.502 139.045 331.462 138.554 331.218 138.076C330.974 137.598 330.6 137.277 330.096 137.114ZM337.464 146.413L335.093 145.644C335.025 145.622 335.002 145.577 335.024 145.509L339.705 131.138C339.722 131.083 339.758 131.065 339.813 131.083L342.163 131.844C342.218 131.862 342.236 131.898 342.218 131.953L337.578 146.337C337.556 146.405 337.518 146.43 337.464 146.413ZM347.278 149.594L340.513 147.401C340.458 147.384 340.442 147.341 340.464 147.273L345.139 132.922C345.161 132.854 345.206 132.831 345.274 132.853L347.604 133.608C347.672 133.63 347.695 133.675 347.673 133.743L343.8 145.621L348.112 147.019C348.18 147.041 348.203 147.086 348.181 147.154L347.413 149.525C347.391 149.593 347.346 149.616 347.278 149.594ZM352.268 151.212L349.898 150.443C349.83 150.421 349.807 150.376 349.829 150.308L354.51 135.937C354.527 135.882 354.563 135.864 354.618 135.882L356.968 136.643C357.023 136.661 357.041 136.697 357.023 136.752L352.383 151.136C352.361 151.204 352.323 151.229 352.268 151.212ZM359.702 153.621L357.341 152.856C357.28 152.836 357.26 152.792 357.282 152.724L361.151 140.789L358.433 139.908C358.365 139.885 358.342 139.84 358.364 139.772L359.143 137.439C359.16 137.384 359.197 137.366 359.251 137.383L367.201 139.961C367.276 139.985 367.305 140.024 367.287 140.079L366.529 142.419C366.506 142.487 366.468 142.512 366.414 142.494L363.665 141.603L359.816 153.546C359.794 153.614 359.756 153.639 359.702 153.621ZM369.025 156.643L366.624 155.865C366.576 155.85 366.561 155.815 366.579 155.76L368.527 149.819L368.466 140.461C368.47 140.402 368.5 140.381 368.554 140.399L370.884 141.154C370.952 141.176 370.984 141.217 370.98 141.276L370.698 147.406L374.097 142.286C374.128 142.236 374.171 142.22 374.226 142.237L376.576 142.999C376.63 143.017 376.642 143.051 376.611 143.101L371.067 150.553L369.133 156.588C369.116 156.643 369.08 156.661 369.025 156.643ZM228.955 144.847C229.158 144.22 229.419 143.749 229.736 143.436C230.072 143.113 230.442 142.924 230.845 142.87C231.262 142.82 231.686 142.865 232.119 143.005C232.551 143.146 232.915 143.356 233.209 143.636C233.504 143.917 233.693 144.286 233.775 144.745C233.862 145.189 233.804 145.726 233.601 146.353C233.402 146.967 233.134 147.436 232.798 147.758C232.467 148.067 232.097 148.256 231.69 148.324C231.287 148.379 230.869 148.336 230.437 148.196C230.004 148.055 229.634 147.843 229.325 147.558C229.035 147.263 228.846 146.894 228.759 146.449C228.691 145.995 228.756 145.461 228.955 144.847Z" fill="#1B1B1B"/>
<rect x="108.678" y="24.0592" width="298" height="66.9999" rx="10" transform="rotate(17.9601 108.678 24.0592)" fill="#2FCDC4"/>
<path d="M138.818 129.337C135.988 132.323 130.969 130.847 130.253 126.817L118.932 63.1345C118.281 59.4768 121.733 56.3994 125.306 57.4507L181.35 73.9393C184.923 74.9906 186.109 79.4325 183.54 82.1431L138.818 129.337Z" fill="#2FCDC4"/>
<path d="M111.851 66.5026C111.095 66.2575 110.465 65.8426 109.962 65.2579C109.466 64.6755 109.138 64.0044 108.977 63.2448C108.826 62.4806 108.879 61.7034 109.135 60.9131L111.272 54.39C111.524 53.6133 111.928 52.9691 112.486 52.4572C113.045 51.9384 113.697 51.5888 114.44 51.4082C115.193 51.2231 115.951 51.2542 116.714 51.5015C117.49 51.7532 118.121 52.1647 118.606 52.7359C119.098 53.3094 119.42 53.9748 119.574 54.7322C119.736 55.485 119.691 56.2531 119.437 57.0366L119.125 57.9971C119.108 58.0516 119.071 58.07 119.017 58.0524L116.667 57.2905C116.612 57.2729 116.594 57.2368 116.611 57.1823L116.923 56.2217C117.073 55.7585 117.052 55.3114 116.861 54.8804C116.669 54.4494 116.349 54.161 115.899 54.0153C115.402 53.8541 114.965 53.9007 114.589 54.1552C114.213 54.4098 113.952 54.7618 113.806 55.2114L111.689 61.7412C111.524 62.2522 111.538 62.7197 111.732 63.1439C111.928 63.5612 112.24 63.8395 112.669 63.9786C113.119 64.1243 113.551 64.0686 113.966 63.8116C114.382 63.5477 114.663 63.1943 114.806 62.7515L115.121 61.7807C115.138 61.7262 115.175 61.7078 115.229 61.7255L117.6 62.4939C117.654 62.5116 117.673 62.5477 117.655 62.6022L117.34 63.573C117.086 64.3564 116.671 65.0121 116.093 65.54C115.511 66.059 114.85 66.4132 114.111 66.6028C113.374 66.7855 112.621 66.7521 111.851 66.5026ZM121.047 69.2575L118.676 68.489C118.622 68.4714 118.605 68.4285 118.627 68.3604L123.329 53.9958C123.347 53.9413 123.383 53.9229 123.437 53.9406L127.668 55.3119C128.424 55.557 129.059 55.9662 129.573 56.5395C130.088 57.1127 130.432 57.77 130.606 58.5114C130.786 59.255 130.749 60.0185 130.495 60.802C130.33 61.3129 130.101 61.7508 129.81 62.1155C129.519 62.4803 129.221 62.7715 128.917 62.9892C128.62 63.2091 128.364 63.3595 128.15 63.4406C128.634 64.5236 128.693 65.6306 128.327 66.7615L126.956 71.06C126.934 71.1281 126.889 71.1511 126.82 71.129L124.45 70.3605C124.395 70.3429 124.375 70.3136 124.388 70.2727L125.792 65.94C125.956 65.4359 125.92 64.9424 125.685 64.4597C125.45 63.977 125.073 63.6518 124.556 63.4839L123.176 63.0368L121.162 69.1818C121.14 69.25 121.101 69.2752 121.047 69.2575ZM126.856 57.8155L125.058 57.2325L123.991 60.523L125.79 61.1059C126.219 61.2451 126.652 61.2086 127.09 60.9967C127.534 60.7869 127.831 60.4504 127.982 59.9871C128.125 59.5443 128.085 59.1098 127.862 58.6836C127.641 58.2506 127.306 57.9613 126.856 57.8155ZM133.544 73.5341C132.801 73.2934 132.178 72.8808 131.675 72.2961C131.179 71.7137 130.843 71.0438 130.666 70.2866C130.499 69.5248 130.539 68.7624 130.787 67.9994L132.957 61.374C133.209 60.5974 133.622 59.9598 134.198 59.4614C134.769 58.9539 135.429 58.6143 136.177 58.4428C136.927 58.2645 137.67 58.2945 138.406 58.533C139.169 58.7804 139.793 59.1896 140.278 59.7609C140.77 60.3343 141.097 60.9974 141.259 61.7502C141.431 62.4984 141.392 63.2574 141.142 64.0272L139.013 70.6658C138.766 71.4288 138.355 72.0675 137.782 72.5818C137.2 73.1007 136.537 73.4505 135.793 73.631C135.05 73.8116 134.3 73.7793 133.544 73.5341ZM134.362 71.0101C134.784 71.147 135.207 71.096 135.631 70.8569C136.057 70.6111 136.339 70.2735 136.479 69.8444L138.608 63.2058C138.758 62.7425 138.739 62.3033 138.549 61.8882C138.36 61.473 138.041 61.1926 137.591 61.0468C137.162 60.9077 136.743 60.9452 136.335 61.1592C135.927 61.3732 135.646 61.7186 135.491 62.1955L133.341 68.8275C133.193 69.2839 133.219 69.7287 133.417 70.1619C133.618 70.5883 133.932 70.871 134.362 71.0101ZM143.838 76.8711C143.095 76.6304 142.472 76.2177 141.969 75.633C141.473 75.0506 141.14 74.3818 140.971 73.6268C140.811 72.8672 140.854 72.1059 141.102 71.3429L141.413 70.3823C141.437 70.3074 141.483 70.281 141.552 70.303L143.902 71.0649C143.956 71.0826 143.971 71.1289 143.947 71.2038L143.636 72.1644C143.488 72.6208 143.513 73.0656 143.711 73.4988C143.912 73.9252 144.227 74.2079 144.656 74.347C145.092 74.4884 145.517 74.4418 145.932 74.2074C146.349 73.9661 146.629 73.6241 146.773 73.1813C146.939 72.6703 146.749 72.1159 146.205 71.518C146.119 71.4145 146.002 71.2864 145.856 71.1336C145.719 70.9762 145.552 70.7942 145.355 70.5874C145.159 70.3807 144.968 70.1796 144.783 69.9841C144.6 69.7818 144.422 69.5885 144.248 69.4042C143.631 68.7073 143.244 67.9609 143.088 67.165C142.941 66.3645 143.005 65.5419 143.278 64.6971C143.53 63.9205 143.948 63.2806 144.533 62.7775C145.115 62.2813 145.772 61.952 146.502 61.7897C147.241 61.6227 147.972 61.6563 148.694 61.8904C149.436 62.1311 150.058 62.5358 150.559 63.1047C151.057 63.6803 151.39 64.3377 151.557 65.0769C151.731 65.8183 151.693 66.5739 151.443 67.3437L150.887 69.0605C150.869 69.115 150.833 69.1334 150.778 69.1157L148.428 68.3539C148.374 68.3362 148.355 68.3001 148.373 68.2456L148.909 66.5222C149.068 66.0317 149.044 65.5835 148.837 65.1776C148.629 64.7717 148.315 64.5002 147.892 64.3633C147.463 64.2242 147.042 64.2685 146.63 64.4961C146.217 64.7237 145.938 65.0623 145.792 65.512C145.644 65.9684 145.616 66.3808 145.707 66.7492C145.806 67.1198 146.068 67.5287 146.495 67.9758C146.541 68.0207 146.645 68.1297 146.807 68.3028C146.969 68.4758 147.148 68.6691 147.342 68.8826C147.545 69.0916 147.728 69.2825 147.89 69.4556C148.055 69.6218 148.154 69.7218 148.188 69.7555C148.757 70.369 149.151 71.0236 149.37 71.7194C149.595 72.4173 149.574 73.1784 149.307 74.0027C149.049 74.7998 148.633 75.4555 148.06 75.9698C147.48 76.4819 146.82 76.8214 146.081 76.9883C145.342 77.1553 144.594 77.1162 143.838 76.8711ZM153.999 80.1649C153.257 79.9242 152.634 79.5115 152.131 78.9269C151.635 78.3444 151.302 77.6757 151.133 76.9207C150.972 76.161 151.016 75.3997 151.263 74.6367L151.574 73.6762C151.599 73.6012 151.645 73.5748 151.713 73.5969L154.063 74.3587C154.118 74.3764 154.133 74.4227 154.109 74.4976L153.797 75.4582C153.649 75.9146 153.675 76.3595 153.873 76.7926C154.073 77.219 154.388 77.5018 154.818 77.6409C155.254 77.7822 155.679 77.7356 156.094 77.5012C156.511 77.26 156.791 76.9179 156.934 76.4751C157.1 75.9642 156.911 75.4098 156.367 74.8118C156.28 74.7084 156.163 74.5803 156.017 74.4275C155.88 74.2701 155.713 74.088 155.517 73.8813C155.32 73.6746 155.13 73.4735 154.944 73.278C154.762 73.0756 154.583 72.8824 154.41 72.6981C153.792 72.0011 153.406 71.2547 153.25 70.4588C153.103 69.6583 153.166 68.8357 153.44 67.991C153.692 67.2143 154.11 66.5745 154.694 66.0714C155.277 65.5751 155.933 65.2458 156.663 65.0835C157.403 64.9166 158.133 64.9502 158.855 65.1842C159.598 65.4249 160.22 65.8297 160.72 66.3985C161.219 66.9742 161.551 67.6316 161.718 68.3708C161.892 69.1121 161.854 69.8677 161.605 70.6376L161.048 72.3543C161.031 72.4088 160.994 72.4272 160.94 72.4096L158.59 71.6477C158.535 71.63 158.517 71.594 158.534 71.5395L159.07 69.8161C159.229 69.3256 159.205 68.8774 158.998 68.4714C158.791 68.0655 158.476 67.7941 158.054 67.6572C157.625 67.518 157.204 67.5623 156.791 67.7899C156.379 68.0176 156.099 68.3562 155.954 68.8058C155.806 69.2622 155.777 69.6747 155.869 70.0431C155.967 70.4137 156.23 70.8225 156.657 71.2697C156.703 71.3146 156.807 71.4236 156.969 71.5966C157.131 71.7696 157.309 71.9629 157.504 72.1765C157.707 72.3854 157.89 72.5764 158.052 72.7494C158.216 72.9157 158.316 73.0156 158.35 73.0493C158.919 73.6629 159.313 74.3175 159.531 75.0132C159.757 75.7112 159.736 76.4723 159.469 77.2966C159.21 78.0936 158.795 78.7493 158.221 79.2637C157.641 79.7758 156.982 80.1153 156.242 80.2822C155.503 80.4491 154.756 80.41 153.999 80.1649ZM166.852 77.4202L162.806 76.1085C162.738 76.0864 162.712 76.0481 162.73 75.9936L163.469 73.7148C163.486 73.6603 163.529 73.6441 163.597 73.6662L167.644 74.9779C167.712 75 167.737 75.0383 167.72 75.0928L166.981 77.3716C166.963 77.4261 166.92 77.4423 166.852 77.4202ZM171.885 85.7367L168.135 84.521C168.08 84.5034 168.064 84.4605 168.086 84.3923L172.788 70.0278C172.805 69.9733 172.841 69.9549 172.896 69.9726L176.922 71.2777C177.705 71.5316 178.356 71.9531 178.872 72.5422C179.375 73.1269 179.705 73.7945 179.86 74.5451C180.018 75.2889 179.978 76.0286 179.74 76.7644C179.545 77.3639 179.228 77.8783 178.788 78.3078C178.347 78.7372 177.888 79.0513 177.409 79.25C177.681 79.7822 177.843 80.3505 177.896 80.9547C177.948 81.559 177.88 82.154 177.69 82.7399C177.427 83.5506 176.993 84.2268 176.388 84.7685C175.777 85.3081 175.076 85.6717 174.284 85.8595C173.496 86.0404 172.696 85.9995 171.885 85.7367ZM176.117 73.7608L174.523 73.2441L173.456 76.5345L175.051 77.0512C175.534 77.208 175.981 77.1647 176.391 76.9212C176.804 76.671 177.075 76.3449 177.205 75.9429C177.349 75.5001 177.313 75.0633 177.099 74.6325C176.887 74.1949 176.56 73.9043 176.117 73.7608ZM173.912 79.4828L172.635 79.0688L171.415 82.7613L172.713 83.182C173.217 83.3454 173.71 83.3017 174.19 83.0509C174.67 82.8 174.992 82.4225 175.155 81.9184C175.319 81.4143 175.278 80.9232 175.034 80.4451C174.79 79.967 174.416 79.6462 173.912 79.4828ZM181.26 88.7755L178.889 88.007C178.834 87.9893 178.818 87.9464 178.84 87.8783L183.542 73.5138C183.559 73.4593 183.596 73.4409 183.65 73.4585L187.881 74.8299C188.637 75.075 189.272 75.4842 189.786 76.0574C190.301 76.6307 190.645 77.288 190.818 78.0294C190.999 78.773 190.962 79.5365 190.708 80.3199C190.543 80.8309 190.314 81.2687 190.023 81.6335C189.731 81.9983 189.434 82.2895 189.13 82.5071C188.833 82.727 188.577 82.8775 188.362 82.9585C188.847 84.0416 188.906 85.1485 188.539 86.2794L187.169 90.5779C187.147 90.646 187.101 90.6691 187.033 90.647L184.663 89.8785C184.608 89.8608 184.587 89.8316 184.601 89.7907L186.005 85.4579C186.169 84.9538 186.133 84.4604 185.898 83.9777C185.663 83.495 185.286 83.1697 184.769 83.0019L183.389 82.5547L181.375 88.6998C181.353 88.7679 181.314 88.7931 181.26 88.7755ZM187.069 77.3335L185.271 76.7505L184.204 80.0409L186.002 80.6239C186.432 80.763 186.865 80.7266 187.303 80.5146C187.747 80.3048 188.044 79.9683 188.195 79.5051C188.338 79.0623 188.298 78.6278 188.075 78.2016C187.854 77.7686 187.519 77.4792 187.069 77.3335ZM193.756 93.0521C193.014 92.8114 192.391 92.3987 191.888 91.8141C191.392 91.2316 191.055 90.5618 190.879 89.8045C190.712 89.0427 190.752 88.2803 191 87.5173L193.17 80.892C193.422 80.1153 193.835 79.4778 194.411 78.9793C194.982 78.4718 195.642 78.1323 196.39 77.9608C197.14 77.7824 197.883 77.8125 198.619 78.051C199.382 78.2983 200.006 78.7076 200.491 79.2788C200.982 79.8522 201.31 80.5154 201.472 81.2682C201.644 82.0164 201.605 82.7754 201.355 83.5452L199.226 90.1838C198.978 90.9468 198.568 91.5854 197.995 92.0998C197.413 92.6187 196.75 92.9684 196.006 93.149C195.262 93.3295 194.513 93.2972 193.756 93.0521ZM194.575 90.5281C194.997 90.665 195.42 90.6139 195.844 90.3749C196.27 90.129 196.552 89.7915 196.691 89.3623L198.821 82.7237C198.971 82.2605 198.951 81.8213 198.762 81.4061C198.573 80.991 198.254 80.7105 197.804 80.5648C197.375 80.4257 196.956 80.4631 196.548 80.6771C196.14 80.8911 195.859 81.2366 195.704 81.7134L193.554 88.3454C193.406 88.8018 193.432 89.2467 193.63 89.6798C193.831 90.1062 194.145 90.389 194.575 90.5281ZM205.026 96.4794L202.492 95.658C202.431 95.6381 202.408 95.593 202.423 95.5227L204.611 80.3433C204.615 80.2844 204.644 80.2637 204.699 80.2814L207.049 81.0433C207.103 81.0609 207.129 81.0992 207.125 81.1581L205.399 91.0444L209.843 82.0392C209.874 81.9892 209.924 81.9751 209.992 81.9972L211.882 82.61C211.937 82.6277 211.962 82.666 211.958 82.7249L210.253 92.6178L214.676 83.606C214.708 83.5559 214.75 83.5397 214.805 83.5574L217.135 84.3126C217.203 84.3347 217.221 84.3708 217.19 84.4208L210.036 97.9904C210.021 98.0154 209.992 98.0326 209.952 98.042L209.901 98.0595L207.367 97.238C207.326 97.2247 207.303 97.1796 207.298 97.1027L208.659 89.2441L205.162 96.4104C205.133 96.4763 205.088 96.4993 205.026 96.4794ZM218.259 100.995C217.516 100.754 216.894 100.341 216.39 99.7565C215.894 99.1741 215.561 98.5053 215.392 97.7503C215.232 96.9907 215.275 96.2294 215.523 95.4664L215.834 94.5058C215.858 94.4309 215.904 94.4045 215.973 94.4265L218.323 95.1884C218.377 95.2061 218.392 95.2524 218.368 95.3273L218.057 96.2879C217.909 96.7443 217.934 97.1891 218.132 97.6223C218.333 98.0487 218.648 98.3314 219.077 98.4705C219.513 98.6119 219.938 98.5653 220.353 98.3309C220.77 98.0896 221.05 97.7476 221.194 97.3048C221.36 96.7938 221.17 96.2394 220.626 95.6415C220.54 95.538 220.423 95.4099 220.277 95.2571C220.14 95.0997 219.973 94.9177 219.776 94.7109C219.58 94.5042 219.389 94.3031 219.204 94.1076C219.021 93.9053 218.843 93.712 218.669 93.5277C218.052 92.8308 217.665 92.0844 217.509 91.2885C217.362 90.488 217.426 89.6654 217.699 88.8206C217.951 88.044 218.369 87.4041 218.954 86.901C219.536 86.4048 220.193 86.0755 220.923 85.9132C221.662 85.7462 222.393 85.7798 223.115 86.0139C223.857 86.2546 224.479 86.6594 224.98 87.2282C225.478 87.8038 225.811 88.4612 225.978 89.2004C226.152 89.9418 226.114 90.6974 225.864 91.4672L225.308 93.184C225.29 93.2385 225.254 93.2569 225.199 93.2392L222.849 92.4774C222.795 92.4597 222.776 92.4236 222.794 92.3691L223.33 90.6457C223.489 90.1552 223.465 89.707 223.258 89.3011C223.05 88.8952 222.736 88.6237 222.313 88.4868C221.884 88.3477 221.463 88.392 221.051 88.6196C220.638 88.8472 220.359 89.1858 220.213 89.6355C220.065 90.0919 220.037 90.5043 220.128 90.8727C220.227 91.2433 220.489 91.6522 220.916 92.0993C220.962 92.1442 221.066 92.2532 221.228 92.4263C221.391 92.5993 221.569 92.7926 221.763 93.0061C221.966 93.2151 222.149 93.406 222.311 93.5791C222.476 93.7453 222.575 93.8453 222.609 93.879C223.178 94.4925 223.572 95.1471 223.791 95.8429C224.016 96.5408 223.995 97.3019 223.728 98.1262C223.47 98.9233 223.054 99.579 222.481 100.093C221.901 100.605 221.241 100.945 220.502 101.112C219.763 101.279 219.015 101.24 218.259 100.995ZM231.777 105.151L225.012 102.958C224.958 102.94 224.942 102.897 224.964 102.829L229.645 88.458C229.662 88.4035 229.698 88.3851 229.753 88.4027L236.477 90.5823C236.531 90.6 236.548 90.6429 236.525 90.711L235.767 93.0511C235.749 93.1056 235.713 93.124 235.659 93.1063L231.367 91.7151L230.307 94.9851L234.599 96.3763C234.653 96.394 234.672 96.4301 234.654 96.4846L233.906 98.8619C233.888 98.9164 233.852 98.9349 233.798 98.9172L229.485 97.5194L228.3 101.178L232.612 102.575C232.666 102.593 232.683 102.636 232.66 102.704L231.885 105.095C231.868 105.15 231.832 105.168 231.777 105.151ZM237.218 106.914L234.847 106.146C234.792 106.128 234.776 106.085 234.798 106.017L239.5 91.6525C239.517 91.598 239.553 91.5795 239.608 91.5972L243.838 92.9685C244.595 93.2137 245.23 93.6228 245.744 94.1961C246.258 94.7693 246.603 95.4266 246.776 96.168C246.957 96.9116 246.92 97.6752 246.666 98.4586C246.501 98.9695 246.272 99.4074 245.981 99.7722C245.689 100.137 245.392 100.428 245.088 100.646C244.791 100.866 244.535 101.016 244.32 101.097C244.805 102.18 244.864 103.287 244.497 104.418L243.126 108.717C243.104 108.785 243.059 108.808 242.991 108.786L240.62 108.017C240.566 107.999 240.545 107.97 240.559 107.929L241.963 103.597C242.126 103.092 242.091 102.599 241.856 102.116C241.621 101.634 241.244 101.308 240.726 101.141L239.347 100.693L237.332 106.838C237.31 106.907 237.272 106.932 237.218 106.914ZM243.027 95.4721L241.228 94.8892L240.162 98.1796L241.96 98.7626C242.389 98.9017 242.823 98.8653 243.26 98.6533C243.705 98.4435 244.002 98.107 244.152 97.6437C244.296 97.2009 244.256 96.7664 244.033 96.3402C243.812 95.9072 243.476 95.6179 243.027 95.4721ZM256.177 113.286C255.42 113.04 254.791 112.626 254.288 112.041C253.791 111.458 253.463 110.787 253.303 110.028C253.152 109.264 253.204 108.486 253.46 107.696L255.597 101.173C255.849 100.396 256.253 99.752 256.811 99.2401C257.371 98.7213 258.022 98.3717 258.766 98.1912C259.518 98.006 260.276 98.0371 261.039 98.2844C261.816 98.5362 262.447 98.9476 262.931 99.5189C263.423 100.092 263.746 100.758 263.899 101.515C264.062 102.268 264.016 103.036 263.762 103.819L263.451 104.78C263.433 104.835 263.397 104.853 263.342 104.835L260.992 104.073C260.938 104.056 260.919 104.02 260.937 103.965L261.248 103.005C261.398 102.541 261.378 102.094 261.186 101.663C260.995 101.232 260.674 100.944 260.224 100.798C259.727 100.637 259.29 100.684 258.914 100.938C258.538 101.193 258.277 101.545 258.131 101.994L256.015 108.524C255.849 109.035 255.863 109.503 256.057 109.927C256.253 110.344 256.566 110.622 256.995 110.761C257.444 110.907 257.876 110.852 258.291 110.594C258.708 110.331 258.988 109.977 259.132 109.534L259.446 108.564C259.464 108.509 259.5 108.491 259.554 108.508L261.925 109.277C261.98 109.295 261.998 109.331 261.98 109.385L261.666 110.356C261.412 111.139 260.996 111.795 260.418 112.323C259.836 112.842 259.175 113.196 258.436 113.386C257.7 113.568 256.946 113.535 256.177 113.286ZM266.726 116.705C265.984 116.465 265.361 116.052 264.858 115.467C264.362 114.885 264.025 114.215 263.849 113.458C263.682 112.696 263.722 111.933 263.97 111.17L266.14 104.545C266.392 103.768 266.805 103.131 267.381 102.632C267.952 102.125 268.612 101.785 269.36 101.614C270.11 101.436 270.853 101.466 271.589 101.704C272.352 101.951 272.976 102.361 273.461 102.932C273.952 103.505 274.28 104.169 274.442 104.921C274.614 105.67 274.575 106.429 274.325 107.198L272.196 113.837C271.948 114.6 271.538 115.239 270.965 115.753C270.383 116.272 269.72 116.622 268.976 116.802C268.232 116.983 267.483 116.95 266.726 116.705ZM267.545 114.181C267.967 114.318 268.39 114.267 268.814 114.028C269.24 113.782 269.522 113.445 269.661 113.015L271.791 106.377C271.941 105.914 271.921 105.474 271.732 105.059C271.543 104.644 271.224 104.364 270.774 104.218C270.345 104.079 269.926 104.116 269.518 104.33C269.11 104.544 268.829 104.89 268.674 105.367L266.524 111.999C266.376 112.455 266.402 112.9 266.6 113.333C266.8 113.759 267.115 114.042 267.545 114.181ZM275.983 119.48L273.613 118.712C273.558 118.694 273.542 118.651 273.564 118.583L278.265 104.218C278.283 104.164 278.319 104.145 278.374 104.163L280.928 104.991C280.983 105.009 281.022 105.052 281.045 105.119L282.061 108.498L284.856 106.355C284.915 106.314 284.975 106.303 285.036 106.323L287.601 107.154C287.662 107.174 287.684 107.211 287.667 107.266L283.047 121.657C283.025 121.725 282.987 121.75 282.932 121.732L280.561 120.964C280.507 120.946 280.491 120.903 280.513 120.835L283.954 110.15L280.723 112.626L279.58 108.732L276.098 119.404C276.076 119.472 276.038 119.498 275.983 119.48ZM288.27 123.463L285.92 122.701C285.852 122.679 285.829 122.634 285.851 122.566L290.552 108.201C290.57 108.147 290.606 108.128 290.661 108.146L294.687 109.451C295.968 109.866 296.852 110.586 297.341 111.61C297.839 112.629 297.87 113.81 297.435 115.152C297.117 116.133 296.646 116.925 296.021 117.528C295.392 118.122 294.7 118.515 293.945 118.707C293.19 118.899 292.445 118.876 291.709 118.638L290.115 118.121L288.406 123.394C288.384 123.462 288.339 123.485 288.27 123.463ZM293.882 111.934L292.281 111.438L290.936 115.587L292.53 116.103C292.973 116.247 293.427 116.161 293.891 115.844C294.357 115.521 294.7 115.019 294.921 114.337C295.098 113.792 295.096 113.299 294.916 112.856C294.737 112.407 294.393 112.1 293.882 111.934ZM295.921 125.83L303.177 112.293C303.208 112.243 303.251 112.227 303.305 112.245L306.34 113.228C306.395 113.246 306.42 113.284 306.416 113.343L304.249 128.529C304.234 128.6 304.195 128.625 304.134 128.605L301.814 127.853C301.746 127.831 301.72 127.785 301.735 127.714L302.007 126.109L299.156 125.185L298.434 126.645C298.405 126.71 298.36 126.734 298.299 126.714L295.969 125.958C295.915 125.941 295.898 125.898 295.921 125.83ZM303.36 117.581L303.489 116.765L303.145 117.512L300.3 123.083L302.314 123.735L303.36 117.581ZM311.036 130.842L308.675 130.077C308.614 130.057 308.594 130.013 308.616 129.945L312.485 118.01L309.767 117.128C309.699 117.106 309.676 117.061 309.698 116.993L310.477 114.66C310.495 114.605 310.531 114.587 310.585 114.604L318.535 117.181C318.61 117.206 318.639 117.245 318.621 117.3L317.863 119.64C317.841 119.708 317.802 119.733 317.748 119.715L314.999 118.824L311.151 130.767C311.128 130.835 311.09 130.86 311.036 130.842ZM318.469 133.252L316.098 132.483C316.03 132.461 316.007 132.416 316.029 132.348L320.71 117.977C320.728 117.922 320.764 117.904 320.818 117.921L323.169 118.683C323.223 118.701 323.241 118.737 323.224 118.792L318.584 133.176C318.562 133.244 318.523 133.269 318.469 133.252ZM325.268 135.456L321.518 134.24C321.464 134.222 321.447 134.18 321.469 134.111L326.171 119.747C326.189 119.692 326.225 119.674 326.279 119.692L330.305 120.997C331.089 121.251 331.739 121.672 332.256 122.261C332.759 122.846 333.088 123.514 333.244 124.264C333.402 125.008 333.361 125.748 333.123 126.483C332.928 127.083 332.611 127.597 332.171 128.027C331.73 128.456 331.271 128.77 330.793 128.969C331.064 129.501 331.226 130.069 331.279 130.674C331.331 131.278 331.263 131.873 331.073 132.459C330.81 133.27 330.376 133.946 329.772 134.488C329.16 135.027 328.459 135.391 327.668 135.579C326.879 135.759 326.079 135.718 325.268 135.456ZM329.5 123.48L327.906 122.963L326.84 126.254L328.434 126.77C328.917 126.927 329.364 126.884 329.775 126.64C330.187 126.39 330.458 126.064 330.589 125.662C330.732 125.219 330.697 124.782 330.483 124.352C330.271 123.914 329.943 123.623 329.5 123.48ZM327.296 129.202L326.018 128.788L324.799 132.48L326.096 132.901C326.601 133.064 327.093 133.021 327.573 132.77C328.053 132.519 328.375 132.142 328.539 131.637C328.702 131.133 328.662 130.642 328.418 130.164C328.174 129.686 327.8 129.365 327.296 129.202ZM334.663 138.501L332.293 137.733C332.225 137.711 332.202 137.665 332.224 137.597L336.905 123.226C336.922 123.172 336.958 123.153 337.013 123.171L339.363 123.933C339.418 123.95 339.436 123.987 339.418 124.041L334.778 138.425C334.756 138.494 334.718 138.519 334.663 138.501ZM344.478 141.682L337.713 139.49C337.658 139.472 337.642 139.429 337.664 139.361L342.338 125.01C342.361 124.942 342.406 124.919 342.474 124.941L344.804 125.696C344.872 125.718 344.895 125.764 344.873 125.832L341 137.709L345.312 139.107C345.38 139.129 345.403 139.174 345.381 139.243L344.613 141.613C344.591 141.681 344.546 141.704 344.478 141.682ZM349.468 143.3L347.098 142.532C347.029 142.51 347.006 142.464 347.029 142.396L351.71 128.025C351.727 127.971 351.763 127.952 351.818 127.97L354.168 128.732C354.223 128.749 354.241 128.786 354.223 128.84L349.583 143.224C349.561 143.293 349.523 143.318 349.468 143.3ZM356.901 145.71L354.541 144.944C354.48 144.925 354.46 144.881 354.482 144.812L358.351 132.877L355.633 131.996C355.565 131.974 355.542 131.929 355.564 131.861L356.343 129.527C356.36 129.473 356.396 129.454 356.451 129.472L364.401 132.049C364.476 132.073 364.505 132.113 364.487 132.167L363.729 134.507C363.706 134.575 363.668 134.6 363.614 134.583L360.865 133.692L357.016 145.634C356.994 145.702 356.956 145.727 356.901 145.71ZM366.225 148.732L363.824 147.953C363.776 147.938 363.761 147.903 363.779 147.848L365.727 141.908L365.666 132.549C365.67 132.49 365.7 132.47 365.754 132.487L368.084 133.243C368.152 133.265 368.184 133.305 368.18 133.364L367.898 139.495L371.297 134.374C371.328 134.324 371.371 134.308 371.425 134.326L373.776 135.088C373.83 135.105 373.842 135.139 373.811 135.189L368.267 142.641L366.333 148.677C366.316 148.731 366.28 148.749 366.225 148.732ZM226.155 136.936C226.358 136.308 226.619 135.837 226.936 135.524C227.272 135.201 227.641 135.013 228.045 134.958C228.462 134.908 228.886 134.953 229.319 135.094C229.751 135.234 230.115 135.444 230.409 135.725C230.704 136.005 230.893 136.375 230.975 136.833C231.062 137.278 231.004 137.814 230.801 138.442C230.602 139.056 230.334 139.524 229.998 139.847C229.667 140.156 229.297 140.344 228.89 140.413C228.487 140.467 228.069 140.424 227.636 140.284C227.204 140.144 226.833 139.931 226.525 139.646C226.235 139.352 226.046 138.982 225.959 138.538C225.891 138.084 225.956 137.55 226.155 136.936Z" fill="#1B1B1B"/>
</svg>
