<svg width="322" height="138" viewBox="0 0 322 138" fill="none" xmlns="http://www.w3.org/2000/svg">
<rect x="36" y="14" width="247" height="124" rx="13" fill="#FFE380"/>
<path d="M36 16C36 8.4575 36 4.68626 38.3431 2.34312C40.6863 -3.05176e-05 44.4575 -3.05176e-05 52 -3.05176e-05H112.281C122.067 -3.05176e-05 130 7.93292 130 17.7187C130 22.8446 125.845 27 120.719 27H36V16Z" fill="#F7C000"/>
<path d="M64.5281 72H61.1375C61.0555 72 61.0099 71.9544 61.0008 71.8633L57.6922 52.627C57.674 52.554 57.7013 52.5176 57.7742 52.5176H60.9187C60.9917 52.5176 61.0372 52.554 61.0555 52.627L62.8465 65.2734L64.6922 52.627C64.7104 52.554 64.7651 52.5176 64.8562 52.5176H67.3855C67.4585 52.5176 67.504 52.554 67.5223 52.627L69.3406 65.2734L71.159 52.627C71.1772 52.554 71.2228 52.5176 71.2957 52.5176H74.4129C74.504 52.5176 74.5405 52.554 74.5223 52.627L71.1863 71.8633C71.1772 71.8997 71.1499 71.9316 71.1043 71.959L71.0496 72H67.659C67.6043 72 67.5587 71.9544 67.5223 71.8633L66.0867 61.8145L64.6648 71.8633C64.6557 71.9544 64.6102 72 64.5281 72ZM85.0277 72H75.977C75.904 72 75.8676 71.9544 75.8676 71.8633L75.8949 52.627C75.8949 52.554 75.9314 52.5176 76.0043 52.5176H85.0004C85.0733 52.5176 85.1098 52.5632 85.1098 52.6543V55.7852C85.1098 55.8581 85.0733 55.8945 85.0004 55.8945H79.2582V60.2695H85.0004C85.0733 60.2695 85.1098 60.306 85.1098 60.3789L85.1371 63.5508C85.1371 63.6237 85.1006 63.6602 85.0277 63.6602H79.2582V68.5547H85.0277C85.1006 68.5547 85.1371 68.6003 85.1371 68.6914V71.8906C85.1371 71.9635 85.1006 72 85.0277 72ZM94.1523 72H89.1348C89.0618 72 89.0254 71.9544 89.0254 71.8633L89.0801 52.627C89.0801 52.554 89.1165 52.5176 89.1895 52.5176H94.5762C95.6243 52.5176 96.5768 52.7728 97.4336 53.2832C98.2721 53.7936 98.9329 54.4727 99.416 55.3203C99.8991 56.1589 100.141 57.0703 100.141 58.0547C100.141 58.8568 99.9583 59.6042 99.5938 60.2969C99.2292 60.9896 98.7962 61.5501 98.2949 61.9785C98.8327 62.5163 99.252 63.1406 99.5527 63.8516C99.8535 64.5625 100.004 65.3099 100.004 66.0938C100.004 67.1784 99.7441 68.1673 99.2246 69.0605C98.696 69.9538 97.9896 70.6693 97.1055 71.207C96.2214 71.7357 95.237 72 94.1523 72ZM94.5762 55.8398H92.4434V60.2422H94.5762C95.2233 60.2422 95.7474 60.0143 96.1484 59.5586C96.5495 59.0938 96.75 58.5924 96.75 58.0547C96.75 57.4622 96.5358 56.9473 96.1074 56.5098C95.679 56.0632 95.1686 55.8398 94.5762 55.8398ZM94.1523 63.6328H92.4434L92.416 68.582H94.1523C94.8268 68.582 95.4056 68.3359 95.8887 67.8438C96.3717 67.3516 96.6133 66.7682 96.6133 66.0938C96.6133 65.4193 96.3717 64.8405 95.8887 64.3574C95.4056 63.8743 94.8268 63.6328 94.1523 63.6328ZM115.368 72H112.224C112.133 72 112.087 71.9544 112.087 71.8633L112.142 52.627C112.142 52.554 112.178 52.5176 112.251 52.5176H117.638C119.351 52.5176 120.705 53.0417 121.698 54.0898C122.701 55.1289 123.202 56.5462 123.202 58.3418C123.202 59.6543 122.943 60.7982 122.423 61.7734C121.894 62.7396 121.211 63.487 120.372 64.0156C119.534 64.5443 118.622 64.8086 117.638 64.8086H115.505V71.8633C115.505 71.9544 115.46 72 115.368 72ZM117.638 55.8398L115.505 55.8672V61.418H117.638C118.23 61.418 118.745 61.1354 119.183 60.5703C119.62 59.9961 119.839 59.2533 119.839 58.3418C119.839 57.6126 119.643 57.0156 119.251 56.5508C118.859 56.0768 118.321 55.8398 117.638 55.8398ZM135.444 72H126.393C126.32 72 126.284 71.9544 126.284 71.8633L126.311 52.627C126.311 52.554 126.348 52.5176 126.421 52.5176H135.417C135.49 52.5176 135.526 52.5632 135.526 52.6543V55.7852C135.526 55.8581 135.49 55.8945 135.417 55.8945H129.675V60.2695H135.417C135.49 60.2695 135.526 60.306 135.526 60.3789L135.554 63.5508C135.554 63.6237 135.517 63.6602 135.444 63.6602H129.675V68.5547H135.444C135.517 68.5547 135.554 68.6003 135.554 68.6914V71.8906C135.554 71.9635 135.517 72 135.444 72ZM142.723 72H139.551C139.478 72 139.442 71.9544 139.442 71.8633L139.496 52.627C139.496 52.554 139.533 52.5176 139.606 52.5176H145.266C146.278 52.5176 147.207 52.7637 148.055 53.2559C148.903 53.748 149.577 54.4089 150.079 55.2383C150.589 56.0677 150.844 57.0065 150.844 58.0547C150.844 58.7383 150.739 59.3581 150.53 59.9141C150.32 60.4701 150.074 60.9395 149.791 61.3223C149.518 61.7051 149.267 61.9876 149.039 62.1699C150.051 63.291 150.557 64.6081 150.557 66.1211L150.584 71.8633C150.584 71.9544 150.539 72 150.448 72H147.276C147.203 72 147.166 71.9727 147.166 71.918V66.1211C147.166 65.4466 146.929 64.8633 146.455 64.3711C145.982 63.8789 145.398 63.6328 144.705 63.6328H142.86L142.832 71.8633C142.832 71.9544 142.796 72 142.723 72ZM145.266 55.8672H142.86V60.2695H145.266C145.84 60.2695 146.351 60.0553 146.797 59.627C147.253 59.1986 147.481 58.6745 147.481 58.0547C147.481 57.4622 147.262 56.9518 146.825 56.5234C146.387 56.0859 145.868 55.8672 145.266 55.8672ZM157.631 72H154.486C154.395 72 154.35 71.9544 154.35 71.8633L154.404 52.627C154.404 52.554 154.441 52.5176 154.514 52.5176H163.482C163.574 52.5176 163.619 52.554 163.619 52.627V55.7852C163.619 55.8581 163.583 55.8945 163.51 55.8945H157.768V60.2422H163.51C163.583 60.2422 163.619 60.2878 163.619 60.3789L163.646 63.5508C163.646 63.6237 163.601 63.6602 163.51 63.6602H157.768V71.8633C157.768 71.9544 157.722 72 157.631 72ZM172.716 72.2734C171.723 72.2734 170.807 72.0182 169.968 71.5078C169.139 70.9974 168.469 70.3184 167.959 69.4707C167.457 68.6139 167.207 67.6751 167.207 66.6543L167.234 57.7812C167.234 56.7422 167.485 55.8079 167.986 54.9785C168.478 54.14 169.143 53.4701 169.982 52.9688C170.821 52.4583 171.732 52.2031 172.716 52.2031C173.737 52.2031 174.653 52.4538 175.464 52.9551C176.285 53.4564 176.941 54.1309 177.433 54.9785C177.934 55.8171 178.185 56.7513 178.185 57.7812L178.212 66.6543C178.212 67.6751 177.966 68.6094 177.474 69.457C176.973 70.3138 176.308 70.9974 175.478 71.5078C174.649 72.0182 173.728 72.2734 172.716 72.2734ZM172.716 68.8965C173.282 68.8965 173.774 68.6686 174.193 68.2129C174.612 67.748 174.822 67.2285 174.822 66.6543L174.795 57.7812C174.795 57.1615 174.599 56.6374 174.207 56.209C173.815 55.7806 173.318 55.5664 172.716 55.5664C172.142 55.5664 171.65 55.776 171.24 56.1953C170.83 56.6146 170.625 57.1432 170.625 57.7812V66.6543C170.625 67.265 170.83 67.7936 171.24 68.2402C171.65 68.6777 172.142 68.8965 172.716 68.8965ZM185.013 72H181.841C181.768 72 181.732 71.9544 181.732 71.8633L181.786 52.627C181.786 52.554 181.823 52.5176 181.896 52.5176H187.556C188.568 52.5176 189.497 52.7637 190.345 53.2559C191.193 53.748 191.867 54.4089 192.368 55.2383C192.879 56.0677 193.134 57.0065 193.134 58.0547C193.134 58.7383 193.029 59.3581 192.82 59.9141C192.61 60.4701 192.364 60.9395 192.081 61.3223C191.808 61.7051 191.557 61.9876 191.329 62.1699C192.341 63.291 192.847 64.6081 192.847 66.1211L192.874 71.8633C192.874 71.9544 192.829 72 192.737 72H189.566C189.493 72 189.456 71.9727 189.456 71.918V66.1211C189.456 65.4466 189.219 64.8633 188.745 64.3711C188.271 63.8789 187.688 63.6328 186.995 63.6328H185.15L185.122 71.8633C185.122 71.9544 185.086 72 185.013 72ZM187.556 55.8672H185.15V60.2695H187.556C188.13 60.2695 188.64 60.0553 189.087 59.627C189.543 59.1986 189.771 58.6745 189.771 58.0547C189.771 57.4622 189.552 56.9518 189.114 56.5234C188.677 56.0859 188.157 55.8672 187.556 55.8672ZM199.921 72H196.749C196.676 72 196.639 71.9544 196.639 71.8633L196.694 52.627C196.694 52.554 196.731 52.5176 196.804 52.5176H200.221C200.294 52.5176 200.358 52.554 200.413 52.627L202.97 56.3184L205.512 52.627C205.567 52.554 205.636 52.5176 205.718 52.5176H209.149C209.231 52.5176 209.272 52.554 209.272 52.627L209.327 71.8633C209.327 71.9544 209.29 72 209.218 72H206.046C205.973 72 205.936 71.9544 205.936 71.8633L205.909 57.5762L202.97 61.8418L200.057 57.5762L200.03 71.8633C200.03 71.9544 199.994 72 199.921 72ZM212.135 71.8633L215.608 52.627C215.626 52.554 215.672 52.5176 215.745 52.5176H219.805C219.878 52.5176 219.924 52.554 219.942 52.627L223.278 71.8633C223.287 71.9544 223.25 72 223.168 72H220.065C219.974 72 219.924 71.9544 219.914 71.8633L219.614 69.8125H215.799L215.498 71.8633C215.489 71.9544 215.444 72 215.362 72H212.245C212.172 72 212.135 71.9544 212.135 71.8633ZM217.905 58.957L217.741 57.918L217.618 58.957L216.36 66.8184H219.053L217.905 58.957ZM229.477 72H226.674C226.528 72 226.455 71.9362 226.455 71.8086L226.428 52.7363C226.428 52.5905 226.501 52.5176 226.646 52.5176H229.176L233.906 63.5508L233.77 52.7363C233.77 52.5905 233.852 52.5176 234.016 52.5176H236.791C236.9 52.5176 236.955 52.5905 236.955 52.7363L236.982 71.8359C236.982 71.9453 236.937 72 236.846 72H234.385L229.531 61.6914L229.736 71.7812C229.736 71.9271 229.65 72 229.477 72ZM245.97 72.2734C244.959 72.2734 244.033 72.0182 243.195 71.5078C242.365 70.9974 241.705 70.3138 241.212 69.457C240.729 68.5911 240.488 67.6296 240.488 66.5723L240.515 57.8359C240.515 56.7969 240.752 55.8581 241.226 55.0195C241.7 54.1719 242.352 53.4928 243.181 52.9824C244.02 52.4629 244.949 52.2031 245.97 52.2031C247.009 52.2031 247.934 52.4538 248.746 52.9551C249.566 53.4564 250.218 54.1354 250.701 54.9922C251.193 55.8398 251.439 56.7878 251.439 57.8359V59.1211C251.439 59.194 251.403 59.2305 251.33 59.2305H248.185C248.112 59.2305 248.076 59.194 248.076 59.1211V57.8359C248.076 57.2161 247.875 56.6829 247.474 56.2363C247.073 55.7897 246.572 55.5664 245.97 55.5664C245.305 55.5664 244.795 55.7943 244.439 56.25C244.084 56.7057 243.906 57.2344 243.906 57.8359V66.5723C243.906 67.2559 244.106 67.8164 244.507 68.2539C244.908 68.6823 245.396 68.8965 245.97 68.8965C246.572 68.8965 247.073 68.6595 247.474 68.1855C247.875 67.7025 248.076 67.1647 248.076 66.5723V65.2734C248.076 65.2005 248.112 65.1641 248.185 65.1641H251.357C251.43 65.1641 251.466 65.2005 251.466 65.2734V66.5723C251.466 67.6204 251.22 68.5775 250.728 69.4434C250.227 70.3001 249.566 70.9883 248.746 71.5078C247.925 72.0182 247 72.2734 245.97 72.2734ZM264.064 72H255.013C254.94 72 254.904 71.9544 254.904 71.8633L254.931 52.627C254.931 52.554 254.967 52.5176 255.04 52.5176H264.036C264.109 52.5176 264.146 52.5632 264.146 52.6543V55.7852C264.146 55.8581 264.109 55.8945 264.036 55.8945H258.294V60.2695H264.036C264.109 60.2695 264.146 60.306 264.146 60.3789L264.173 63.5508C264.173 63.6237 264.137 63.6602 264.064 63.6602H258.294V68.5547H264.064C264.137 68.5547 264.173 68.6003 264.173 68.6914V71.8906C264.173 71.9635 264.137 72 264.064 72Z" fill="#1B1B1B"/>
<path d="M98.3066 101.273C97.3132 101.273 96.3971 101.018 95.5586 100.508C94.7292 99.9974 94.0592 99.3184 93.5488 98.4707C93.0475 97.6139 92.7969 96.6751 92.7969 95.6543L92.8242 86.7812C92.8242 85.7422 93.0749 84.8079 93.5762 83.9785C94.0684 83.14 94.7337 82.4701 95.5723 81.9688C96.4108 81.4583 97.3223 81.2031 98.3066 81.2031C99.3275 81.2031 100.243 81.4538 101.055 81.9551C101.875 82.4564 102.531 83.1309 103.023 83.9785C103.525 84.8171 103.775 85.7513 103.775 86.7812L103.803 95.6543C103.803 96.6751 103.557 97.6094 103.064 98.457C102.563 99.3138 101.898 99.9974 101.068 100.508C100.239 101.018 99.3184 101.273 98.3066 101.273ZM98.3066 97.8965C98.8717 97.8965 99.3639 97.6686 99.7832 97.2129C100.202 96.748 100.412 96.2285 100.412 95.6543L100.385 86.7812C100.385 86.1615 100.189 85.6374 99.7969 85.209C99.4049 84.7806 98.9082 84.5664 98.3066 84.5664C97.7324 84.5664 97.2402 84.776 96.8301 85.1953C96.4199 85.6146 96.2148 86.1432 96.2148 86.7812V95.6543C96.2148 96.265 96.4199 96.7936 96.8301 97.2402C97.2402 97.6777 97.7324 97.8965 98.3066 97.8965ZM110.603 101H107.459C107.367 101 107.322 100.954 107.322 100.863L107.377 81.627C107.377 81.554 107.413 81.5176 107.486 81.5176H112.873C114.586 81.5176 115.94 82.0417 116.933 83.0898C117.936 84.1289 118.437 85.5462 118.437 87.3418C118.437 88.6543 118.177 89.7982 117.658 90.7734C117.129 91.7396 116.446 92.487 115.607 93.0156C114.768 93.5443 113.857 93.8086 112.873 93.8086H110.74V100.863C110.74 100.954 110.694 101 110.603 101ZM112.873 84.8398L110.74 84.8672V90.418H112.873C113.465 90.418 113.98 90.1354 114.418 89.5703C114.855 88.9961 115.074 88.2533 115.074 87.3418C115.074 86.6126 114.878 86.0156 114.486 85.5508C114.094 85.0768 113.556 84.8398 112.873 84.8398ZM127.712 101H124.554C124.472 101 124.431 100.954 124.431 100.863V84.8945H120.794C120.703 84.8945 120.657 84.849 120.657 84.7578L120.685 81.627C120.685 81.554 120.721 81.5176 120.794 81.5176H131.431C131.531 81.5176 131.581 81.554 131.581 81.627V84.7578C131.581 84.849 131.545 84.8945 131.472 84.8945H127.794L127.821 100.863C127.821 100.954 127.785 101 127.712 101ZM137.657 101H134.485C134.394 101 134.348 100.954 134.348 100.863L134.376 81.627C134.376 81.554 134.412 81.5176 134.485 81.5176H137.63C137.703 81.5176 137.739 81.554 137.739 81.627L137.766 100.863C137.766 100.954 137.73 101 137.657 101ZM144.909 101H141.737C141.664 101 141.627 100.954 141.627 100.863L141.682 81.627C141.682 81.554 141.718 81.5176 141.791 81.5176H145.209C145.282 81.5176 145.346 81.554 145.401 81.627L147.957 85.3184L150.5 81.627C150.555 81.554 150.623 81.5176 150.705 81.5176H154.137C154.219 81.5176 154.26 81.554 154.26 81.627L154.315 100.863C154.315 100.954 154.278 101 154.205 101H151.034C150.961 101 150.924 100.954 150.924 100.863L150.897 86.5762L147.957 90.8418L145.045 86.5762L145.018 100.863C145.018 100.954 144.982 101 144.909 101ZM161.375 101H158.203C158.112 101 158.066 100.954 158.066 100.863L158.094 81.627C158.094 81.554 158.13 81.5176 158.203 81.5176H161.348C161.421 81.5176 161.457 81.554 161.457 81.627L161.484 100.863C161.484 100.954 161.448 101 161.375 101ZM175.039 101H164.593C164.502 101 164.457 100.954 164.457 100.863L164.484 97.8145L171.347 84.7031H164.853C164.771 84.7031 164.73 84.6667 164.73 84.5938V81.6543C164.73 81.5632 164.771 81.5176 164.853 81.5176H174.984C175.075 81.5176 175.121 81.5632 175.121 81.6543V84.6758L168.298 97.7188H175.039C175.112 97.7188 175.148 97.7689 175.148 97.8691L175.175 100.863C175.175 100.954 175.13 101 175.039 101ZM177.396 100.863L180.868 81.627C180.887 81.554 180.932 81.5176 181.005 81.5176H185.066C185.139 81.5176 185.184 81.554 185.202 81.627L188.538 100.863C188.547 100.954 188.511 101 188.429 101H185.325C185.234 101 185.184 100.954 185.175 100.863L184.874 98.8125H181.06L180.759 100.863C180.75 100.954 180.704 101 180.622 101H177.505C177.432 101 177.396 100.954 177.396 100.863ZM183.165 87.957L183.001 86.918L182.878 87.957L181.62 95.8184H184.314L183.165 87.957ZM197.663 101H194.505C194.423 101 194.382 100.954 194.382 100.863V84.8945H190.745C190.654 84.8945 190.608 84.849 190.608 84.7578L190.636 81.627C190.636 81.554 190.672 81.5176 190.745 81.5176H201.382C201.482 81.5176 201.532 81.554 201.532 81.627V84.7578C201.532 84.849 201.496 84.8945 201.423 84.8945H197.745L197.772 100.863C197.772 100.954 197.736 101 197.663 101ZM207.608 101H204.436C204.345 101 204.299 100.954 204.299 100.863L204.327 81.627C204.327 81.554 204.363 81.5176 204.436 81.5176H207.58C207.653 81.5176 207.69 81.554 207.69 81.627L207.717 100.863C207.717 100.954 207.681 101 207.608 101ZM216.76 101.273C215.766 101.273 214.85 101.018 214.012 100.508C213.182 99.9974 212.512 99.3184 212.002 98.4707C211.501 97.6139 211.25 96.6751 211.25 95.6543L211.277 86.7812C211.277 85.7422 211.528 84.8079 212.029 83.9785C212.521 83.14 213.187 82.4701 214.025 81.9688C214.864 81.4583 215.775 81.2031 216.76 81.2031C217.781 81.2031 218.697 81.4538 219.508 81.9551C220.328 82.4564 220.984 83.1309 221.477 83.9785C221.978 84.8171 222.229 85.7513 222.229 86.7812L222.256 95.6543C222.256 96.6751 222.01 97.6094 221.518 98.457C221.016 99.3138 220.351 99.9974 219.521 100.508C218.692 101.018 217.771 101.273 216.76 101.273ZM216.76 97.8965C217.325 97.8965 217.817 97.6686 218.236 97.2129C218.656 96.748 218.865 96.2285 218.865 95.6543L218.838 86.7812C218.838 86.1615 218.642 85.6374 218.25 85.209C217.858 84.7806 217.361 84.5664 216.76 84.5664C216.186 84.5664 215.693 84.776 215.283 85.1953C214.873 85.6146 214.668 86.1432 214.668 86.7812V95.6543C214.668 96.265 214.873 96.7936 215.283 97.2402C215.693 97.6777 216.186 97.8965 216.76 97.8965ZM228.824 101H226.021C225.875 101 225.802 100.936 225.802 100.809L225.775 81.7363C225.775 81.5905 225.848 81.5176 225.994 81.5176H228.523L233.254 92.5508L233.117 81.7363C233.117 81.5905 233.199 81.5176 233.363 81.5176H236.138C236.248 81.5176 236.302 81.5905 236.302 81.7363L236.33 100.836C236.33 100.945 236.284 101 236.193 101H233.732L228.879 90.6914L229.084 100.781C229.084 100.927 228.997 101 228.824 101Z" fill="#1B1B1B"/>
</svg>
